<svg width="426" height="378" viewBox="0 0 426 378" fill="none" xmlns="http://www.w3.org/2000/svg">
<circle cx="271.5" cy="155.5" r="154.5" fill="#EEDCD5"/>
<g clip-path="url(#clip0)">
<path d="M103.091 180.409C103.091 175.661 99.2485 171.818 94.4999 171.818C89.7512 171.818 85.9087 175.661 85.9087 180.409C85.9087 202.968 110.792 233.943 113.628 237.408C115.331 239.472 117.798 240.546 120.281 240.546C122.193 240.546 124.123 239.908 125.725 238.599C129.391 235.587 129.92 230.176 126.916 226.501C117.706 215.276 103.091 192.842 103.091 180.409Z" fill="#363636"/>
<path d="M283.5 171.818C278.752 171.818 274.909 175.661 274.909 180.409C274.909 192.8 260.294 215.26 251.083 226.51C248.08 230.176 248.616 235.588 252.283 238.599C253.877 239.908 255.807 240.546 257.728 240.546C260.211 240.546 262.669 239.472 264.372 237.408C267.208 233.943 292.092 202.969 292.092 180.409C292.092 175.661 288.249 171.818 283.5 171.818Z" fill="#363636"/>
<path d="M189 171.818C184.252 171.818 180.409 175.661 180.409 180.409V231.955C180.409 236.703 184.252 240.546 189 240.546C193.749 240.546 197.592 236.703 197.592 231.955V180.409C197.591 175.661 193.748 171.818 189 171.818Z" fill="#363636"/>
<path d="M283.5 34.3639C278.294 34.3639 272.854 35.0525 267.204 36.102C248.283 14.0453 220.273 0 189 0C157.728 0 129.717 14.0453 110.797 36.1012C105.146 35.0525 99.7059 34.3631 94.5006 34.3631C42.3921 34.3639 0 76.7561 0 128.864C0 164.569 20.135 197.029 51.7468 213.078L51.5793 342.906C51.5713 352.277 55.2117 361.087 61.8312 367.714C68.4589 374.351 77.2594 378 86.6311 378H291.404C310.733 378 326.455 362.278 326.455 342.948V212.952C357.95 196.861 378.001 164.452 378.001 128.864C378 76.7561 335.608 34.3639 283.5 34.3639ZM309.273 342.949C309.273 352.798 301.253 360.819 291.403 360.819H86.6302C81.8567 360.819 77.3682 358.956 73.9871 355.576C70.6141 352.195 68.752 347.707 68.7601 342.925L68.8052 309.273H309.273V342.949ZM314.592 199.579C314.138 199.764 313.711 199.982 313.308 200.242C312.226 200.913 311.336 201.803 310.674 202.826C310.003 203.841 309.549 205.016 309.365 206.274C309.289 206.752 309.264 207.231 309.272 207.717V292.091H68.8269L68.9373 207.834C68.9453 207.364 68.9203 206.886 68.8535 206.424C68.6691 205.124 68.1907 203.916 67.494 202.867C66.8392 201.885 65.9839 201.03 64.9433 200.375C64.5156 200.107 64.0622 199.872 63.5926 199.678C35.3956 187.348 17.1816 159.578 17.1816 128.864C17.1816 86.2276 51.8644 51.5455 94.4998 51.5455C96.1662 51.5455 97.9252 51.7468 99.6511 51.883C90.9593 66.989 85.9086 84.4452 85.9086 103.091C85.9086 107.84 89.7512 111.682 94.4998 111.682C99.2484 111.682 103.091 107.84 103.091 103.091C103.091 55.7231 141.633 17.1816 189 17.1816C236.368 17.1816 274.909 55.7231 274.909 103.091C274.909 107.84 278.752 111.682 283.5 111.682C288.249 111.682 292.091 107.84 292.091 103.091C292.091 84.4452 287.041 66.9898 278.349 51.883C280.075 51.7468 281.834 51.5455 283.5 51.5455C326.136 51.5455 360.818 86.2284 360.818 128.864C360.818 159.469 342.68 187.204 314.592 199.579Z" fill="#363636"/>
</g>
<defs>
<clipPath id="clip0">
<rect width="378" height="378" fill="white"/>
</clipPath>
</defs>
</svg>
