<svg width="418" height="377" viewBox="0 0 418 377" fill="none" xmlns="http://www.w3.org/2000/svg">
<circle cx="263.5" cy="154.5" r="154.5" fill="#EEDCD5"/>
<g clip-path="url(#clip0)">
<path d="M2.76856 249.402C12.6727 241.711 28.3585 237.462 49.3899 236.776C63.912 236.3 80.8223 237.667 96.6854 240.55C103.18 223.011 115.386 209.125 131.544 201.071C149.723 192.008 170.823 191.29 190.954 199.049C194.272 200.328 196.145 203.849 195.351 207.315C195.311 207.489 195.265 207.659 195.224 207.833C208.688 205.28 223.005 206.642 236.709 211.93C240.025 213.209 241.897 216.73 241.104 220.194C241.064 220.368 241.017 220.54 240.977 220.714C254.435 218.163 268.751 219.525 282.46 224.808C285.779 226.086 287.652 229.611 286.856 233.078C286.816 233.251 286.77 233.42 286.729 233.592C300.187 231.041 314.497 232.404 328.195 237.688C331.511 238.968 333.383 242.489 332.59 245.953C330.082 256.906 325.53 266.724 319.384 275.009C339.19 282.211 355.57 297.465 365.321 318.187C366.834 321.403 365.755 325.242 362.787 327.198C348.349 336.716 332.293 341.59 316.38 341.59C311.254 341.59 306.143 341.064 301.105 340.044C302.042 350.334 300.815 361.103 297.245 371.772C296.255 374.728 293.493 376.653 290.47 376.653C290.042 376.653 289.608 376.614 289.174 376.534C274.72 373.879 261.804 367.563 251.658 358.368C251.601 358.542 251.55 358.717 251.491 358.892C250.502 361.849 247.74 363.773 244.717 363.773C244.288 363.773 243.855 363.735 243.421 363.655C228.965 360.999 216.055 354.685 205.921 345.497C205.866 345.668 205.816 345.838 205.759 346.009C204.771 348.967 202.008 350.894 198.983 350.893C198.556 350.893 198.122 350.855 197.688 350.775C183.222 348.12 170.304 341.807 160.168 332.616C160.112 332.787 160.063 332.958 160.006 333.129C159.018 336.087 156.254 338.014 153.23 338.013C152.802 338.013 152.368 337.975 151.934 337.895C131.285 334.105 113.962 323.014 103.16 306.662C93.1377 291.493 89.5441 273.056 92.8932 254.395C62.1449 248.983 26.0989 249.383 11.5347 260.692C8.41654 263.113 3.92517 262.549 1.50471 259.43C-0.914322 256.314 -0.349592 251.823 2.76856 249.402V249.402ZM280.981 249.936C273.975 264.517 262.824 275.978 249.091 282.902L269.223 288.57C291.46 286.296 309.554 271.117 316.913 248.989C304.685 245.575 292.203 245.893 280.981 249.936V249.936ZM297.927 324.517C314.681 329.685 332.988 327.55 349.414 318.576C340.06 302.32 325.551 290.939 308.578 286.621C301.43 292.745 293.106 297.363 283.959 300.144C290.315 307.287 295.015 315.567 297.927 324.517V324.517ZM255.271 341.424C262.729 350.729 273.217 357.521 285.448 361.002C290.69 338.281 283.148 315.885 265.349 302.332L245.227 296.667C253.342 309.74 256.889 325.333 255.271 341.424ZM271.175 236.111C258.939 232.697 246.457 233.013 235.239 237.052C228.239 251.636 217.087 263.098 203.347 270.023L223.474 275.689C245.703 273.414 263.801 258.237 271.175 236.111ZM209.529 328.538C216.971 337.846 227.456 344.64 239.695 348.122C244.937 325.4 237.394 303.002 219.591 289.45L199.472 283.785C207.587 296.857 211.138 312.448 209.529 328.538V328.538ZM225.427 223.23C213.196 219.813 200.712 220.13 189.485 224.173C182.485 238.756 171.334 250.217 157.595 257.143L177.724 262.81C199.97 260.531 218.068 245.354 225.427 223.23ZM163.776 315.658C171.219 324.967 181.71 331.76 193.957 335.243C199.185 312.517 191.635 290.116 173.836 276.567L153.718 270.904C161.833 283.975 165.385 299.567 163.776 315.658V315.658ZM179.673 210.351C165.269 206.327 150.65 207.521 137.922 213.866C125.552 220.032 116.07 230.577 110.708 243.942L131.977 249.93C154.219 247.65 172.314 232.473 179.673 210.351V210.351ZM115.091 298.783C122.621 310.181 134.229 318.404 148.203 322.367C153.433 299.637 145.882 277.235 128.078 263.685L106.84 257.706C104.384 272.462 107.257 286.925 115.091 298.783Z" fill="#363636"/>
<path d="M354.469 78.3283C339.88 66.9994 303.839 66.6041 273.113 72.0305C274.334 78.8194 274.644 85.6204 274.018 92.2942C273.649 96.2251 270.162 99.1095 266.233 98.7442C262.302 98.3754 259.415 94.8898 259.783 90.9596C260.264 85.8334 260.051 80.5958 259.173 75.3438L237.917 81.3285C220.12 94.8812 212.578 117.277 217.817 139.996C222.258 138.735 226.475 137.047 230.409 134.951C233.894 133.095 238.223 134.414 240.079 137.899C241.936 141.383 240.616 145.713 237.131 147.569C230.079 151.326 222.331 154.005 214.101 155.53C212.303 155.864 210.415 155.484 208.886 154.484C207.326 153.465 206.422 151.984 205.853 150.246C195.708 159.441 182.791 165.757 168.336 168.412C166.542 168.742 164.659 168.362 163.132 167.364C161.573 166.345 160.668 164.864 160.1 163.126C149.953 172.324 137.035 178.64 122.581 181.292C120.787 181.622 118.905 181.241 117.378 180.243C115.819 179.223 114.915 177.742 114.346 176.005C104.198 185.203 91.2818 191.519 76.8276 194.172C73.3678 194.806 69.8701 192.739 68.7563 189.404C65.1957 178.733 63.974 167.966 64.9126 157.679C59.8823 158.697 54.7797 159.221 49.6557 159.221C33.7526 159.221 17.6836 154.349 3.22232 144.839C0.248569 142.883 -0.833701 139.038 0.683912 135.818C10.4515 115.097 26.8372 99.8436 46.6326 92.6423C40.4778 84.3523 35.92 74.5275 33.4123 63.5675C32.6188 60.1005 34.4946 56.5777 37.8136 55.301C51.5429 50.0205 65.8577 48.6637 79.296 51.22C79.2538 51.042 79.2066 50.8668 79.1659 50.6874C78.3724 47.2204 80.2489 43.6977 83.5679 42.421C97.2958 37.1404 111.61 35.7836 125.05 38.3399C125.008 38.1619 124.961 37.9868 124.919 37.8074C124.126 34.3404 126.002 30.8176 129.321 29.5409C143.048 24.2611 157.361 22.9043 170.798 25.4592C170.758 25.2883 170.712 25.1203 170.673 24.9488C169.88 21.4832 171.753 17.9619 175.071 16.683C195.194 8.92839 216.284 9.64252 234.458 18.6939C250.623 26.7452 262.839 40.6339 269.342 58.179C285.192 55.2917 302.097 53.9235 316.626 54.401C337.649 55.093 353.331 59.3435 363.238 67.0366C366.357 69.4578 366.921 73.9484 364.5 77.0673C362.079 80.1847 357.588 80.7502 354.469 78.3283V78.3283ZM172.066 152.877C184.297 149.396 194.785 142.604 202.243 133.299C200.624 117.209 204.171 101.618 212.285 88.5448L192.191 94.2021C174.374 107.751 166.823 130.15 172.066 152.877ZM126.313 165.758C138.543 162.278 149.03 155.486 156.49 146.178C154.872 130.087 158.421 114.496 166.539 101.424L146.434 107.084C128.624 120.631 121.075 143.03 126.313 165.758ZM80.5641 178.637C92.7922 175.156 103.28 168.364 110.738 159.056C109.124 142.966 112.673 127.375 120.788 114.306L100.676 119.968C82.8824 133.505 75.3358 155.9 80.5641 178.637ZM16.5999 136.208C33.0563 145.18 51.3685 147.314 68.0972 142.147C71.0109 133.194 75.7118 124.913 82.0696 117.772C72.9232 114.989 64.5995 110.372 57.4511 104.252C40.485 108.567 25.9708 119.948 16.5999 136.208ZM49.0946 66.6098C56.4517 88.73 74.5537 103.913 96.8061 106.204L116.944 100.535C103.202 93.6088 92.0481 82.1498 85.0462 67.5735C73.8475 63.5146 61.3599 63.1907 49.0946 66.6098ZM94.8474 53.7298C102.205 75.8485 120.304 91.0303 142.555 93.3243L162.695 87.6541C148.955 80.728 137.802 69.2698 130.8 54.6934C119.601 50.6345 107.112 50.3121 94.8474 53.7298V53.7298ZM140.601 40.8505C147.957 62.967 166.055 78.1496 188.303 80.4442L208.438 74.7755C194.698 67.8494 183.545 56.389 176.545 41.8112C165.348 37.7552 152.862 37.4328 140.601 40.8505V40.8505ZM228.086 31.4924C215.364 25.1561 200.752 23.9658 186.355 27.9861C193.712 50.0955 211.807 65.2731 234.048 67.5649L255.323 61.5745C249.954 48.2048 240.462 37.6565 228.086 31.4924Z" fill="#363636"/>
<path d="M259.703 114.522C263.234 116.287 264.666 120.581 262.9 124.112L262.88 124.153C261.63 126.652 259.118 128.089 256.505 128.089C255.427 128.089 254.331 127.845 253.3 127.329C249.768 125.564 248.347 121.25 250.113 117.718C251.878 114.188 256.171 112.756 259.703 114.522Z" fill="#363636"/>
</g>
<defs>
<clipPath id="clip0">
<rect width="366" height="366" fill="white" transform="translate(0 11)"/>
</clipPath>
</defs>
</svg>
