<svg width="441" height="379" viewBox="0 0 441 379" fill="none" xmlns="http://www.w3.org/2000/svg">
<circle cx="286.5" cy="154.5" r="154.5" fill="#EEDCD5"/>
<path d="M11.274 259.99L93.092 337.13C93.8141 337.813 94.6571 338.356 95.578 338.73L184.193 374.6C185.604 375.17 187.148 375.327 188.644 375.052L260.755 361.776C261.045 361.723 261.332 361.653 261.615 361.568L321.506 343.518L369.571 376.637C370.436 377.233 371.41 377.653 372.437 377.873C373.465 378.093 374.525 378.108 375.559 377.918C376.592 377.727 377.578 377.336 378.459 376.764C379.341 376.193 380.102 375.454 380.698 374.589L439.533 289.2C440.737 287.453 441.197 285.299 440.813 283.213C440.428 281.126 439.231 279.278 437.484 278.074L350.494 218.133C339.326 210.392 326.733 204.944 313.444 202.103C300.156 199.262 286.436 199.085 273.079 201.582L266.239 202.84C239.416 207.82 215.631 223.159 200.03 245.54L135.7 250.7C134.379 250.807 133.065 250.985 131.763 251.233L124.971 251.625L56.279 204.3C48.8274 199.171 39.7146 197.044 30.7626 198.344C21.8105 199.644 13.679 204.275 7.9937 211.311C2.30844 218.347 -0.511558 227.27 0.0975328 236.295C0.706624 245.321 4.69992 253.784 11.279 259.992L11.274 259.99ZM19.516 222.57C20.9989 220.417 22.8913 218.578 25.0852 217.156C27.279 215.735 29.7314 214.76 32.3022 214.286C34.873 213.812 37.5119 213.85 40.0683 214.396C42.6246 214.942 45.0483 215.987 47.201 217.47L111.929 262.07C110.617 263.453 109.413 264.935 108.329 266.503C104.705 271.761 102.511 277.872 101.963 284.234C101.415 290.597 102.533 296.992 105.205 302.793C107.877 308.593 112.012 313.598 117.204 317.316C122.396 321.034 128.466 323.338 134.818 324L215.782 332.45C216.061 332.479 216.341 332.493 216.622 332.493C218.671 332.491 220.641 331.702 222.126 330.29C223.611 328.878 224.498 326.95 224.603 324.904C224.708 322.857 224.024 320.848 222.692 319.291C221.359 317.734 219.48 316.748 217.442 316.536L136.479 308.086C131.54 307.578 126.947 305.32 123.528 301.72C120.108 298.12 118.09 293.416 117.836 288.458C117.583 283.5 119.111 278.614 122.145 274.684C125.179 270.755 129.518 268.04 134.379 267.03C134.396 267.03 134.414 267.03 134.431 267.024C135.269 266.848 136.117 266.724 136.971 266.653L205.171 261.181C206.402 261.082 207.593 260.699 208.652 260.062C209.71 259.426 210.606 258.553 211.271 257.512C217.742 247.412 226.215 238.746 236.167 232.05C246.119 225.354 257.338 220.769 269.132 218.58L275.972 217.321C287.263 215.211 298.861 215.36 310.093 217.762C321.326 220.163 331.971 224.769 341.412 231.312L421.812 286.712L372.056 358.924L327.412 328.163C326.424 327.482 325.296 327.032 324.11 326.846C322.925 326.661 321.713 326.744 320.564 327.09L257.422 346.12L188.038 358.894L102.975 324.458L22.251 248.349C18.7719 245.099 16.5804 240.704 16.0781 235.969C15.5758 231.235 16.7963 226.478 19.516 222.57V222.57Z" fill="#363636"/>
<path d="M80.812 172H303.188C317.217 172.001 330.867 167.45 342.088 159.031C353.309 150.611 361.496 138.779 365.419 125.31C369.341 111.841 368.788 97.4624 363.842 84.3348C358.895 71.2071 349.823 60.0387 337.988 52.507L329.354 47.007C317.201 39.2792 304.333 32.7384 290.927 27.475C289.891 27.0667 288.781 26.8796 287.669 26.9258C286.557 26.9721 285.466 27.2506 284.468 27.7434C283.469 28.2363 282.585 28.9326 281.872 29.7876C281.159 30.6426 280.633 31.6374 280.327 32.708C274.952 30.908 269.511 29.3107 264.002 27.916V25.154C264.002 23.3341 263.381 21.5686 262.243 20.1489C261.104 18.7292 259.516 17.7401 257.739 17.345C241.774 13.7961 225.469 12.0037 209.115 12H208C205.878 12 203.843 12.8429 202.343 14.3431C200.843 15.8434 200 17.8783 200 20V28H184V20C184 17.8783 183.157 15.8434 181.657 14.3431C180.157 12.8429 178.122 12 176 12H172.072C156.716 12.0053 141.4 13.5873 126.367 16.721C124.568 17.0962 122.952 18.0796 121.793 19.5058C120.633 20.9319 120 22.7139 120 24.552V28.309C114.592 29.603 109.234 31.0967 103.925 32.79C103.767 31.5967 103.341 30.4544 102.68 29.4485C102.019 28.4427 101.139 27.5991 100.106 26.9809C99.0732 26.3627 97.9141 25.9858 96.7151 25.8783C95.5162 25.7708 94.3084 25.9354 93.182 26.36C75.6422 32.9619 58.9999 41.738 43.645 52.483C35.111 58.4621 28.1431 66.4093 23.331 75.6517C18.5189 84.8942 16.0043 95.1599 16 105.58V107.187C16.0193 124.37 22.8539 140.844 35.0043 152.995C47.1547 165.146 63.6286 171.98 80.812 172V172ZM280 49.532V60C280 62.1217 279.157 64.1566 277.657 65.6569C276.157 67.1572 274.122 68 272 68C269.878 68 267.843 67.1572 266.343 65.6569C264.843 64.1566 264 62.1217 264 60V44.455C269.4 45.933 274.749 47.629 280 49.532ZM200 44V60C200 62.1217 199.157 64.1566 197.657 65.6569C196.157 67.1572 194.122 68 192 68C189.878 68 187.843 67.1572 186.343 65.6569C184.843 64.1566 184 62.1217 184 60V44H200ZM120 44.786V60C120 62.1217 119.157 64.1566 117.657 65.6569C116.157 67.1572 114.122 68 112 68C109.878 68 107.843 67.1572 106.343 65.6569C104.843 64.1566 104 62.1217 104 60V49.616C109.256 47.8 114.6 46.183 120 44.786ZM32 105.58C32.0032 97.7323 33.897 90.0009 37.5211 83.0401C41.1452 76.0794 46.3929 70.0941 52.82 65.591C63.8755 57.8541 75.6577 51.2115 88 45.757V60C88 66.3652 90.5286 72.4697 95.0294 76.9706C99.5303 81.4714 105.635 84 112 84C118.365 84 124.47 81.4714 128.971 76.9706C133.471 72.4697 136 66.3652 136 60V31.16C146.57 29.2978 157.269 28.255 168 28.041V60C168 66.3652 170.529 72.4697 175.029 76.9706C179.53 81.4714 185.635 84 192 84C198.365 84 204.47 81.4714 208.971 76.9706C213.471 72.4697 216 66.3652 216 60V28.115C226.743 28.475 237.441 29.6656 248 31.676V60C248 66.3652 250.529 72.4697 255.029 76.9706C259.53 81.4714 265.635 84 272 84C278.365 84 284.47 81.4714 288.971 76.9706C293.471 72.4697 296 66.3652 296 60V47.026C304.548 50.956 312.82 55.461 320.759 60.51L329.394 66.01C338.305 71.6831 345.136 80.0939 348.86 89.9796C352.584 99.8654 353 110.692 350.046 120.835C347.093 130.977 340.929 139.888 332.479 146.229C324.03 152.57 313.752 155.998 303.188 156H80.812C67.8706 155.985 55.4636 150.838 46.3127 141.687C37.1619 132.536 32.0146 120.128 32 107.187V105.58Z" fill="#363636"/>
<path d="M192 140C196.418 140 200 136.418 200 132C200 127.582 196.418 124 192 124C187.582 124 184 127.582 184 132C184 136.418 187.582 140 192 140Z" fill="#363636"/>
<path d="M128 140C132.418 140 136 136.418 136 132C136 127.582 132.418 124 128 124C123.582 124 120 127.582 120 132C120 136.418 123.582 140 128 140Z" fill="#363636"/>
<path d="M96 124C100.418 124 104 120.418 104 116C104 111.582 100.418 108 96 108C91.5817 108 88 111.582 88 116C88 120.418 91.5817 124 96 124Z" fill="#363636"/>
<path d="M288 124C292.418 124 296 120.418 296 116C296 111.582 292.418 108 288 108C283.582 108 280 111.582 280 116C280 120.418 283.582 124 288 124Z" fill="#363636"/>
<path d="M160 124C164.418 124 168 120.418 168 116C168 111.582 164.418 108 160 108C155.582 108 152 111.582 152 116C152 120.418 155.582 124 160 124Z" fill="#363636"/>
<path d="M224 124C228.418 124 232 120.418 232 116C232 111.582 228.418 108 224 108C219.582 108 216 111.582 216 116C216 120.418 219.582 124 224 124Z" fill="#363636"/>
<path d="M256 140C260.418 140 264 136.418 264 132C264 127.582 260.418 124 256 124C251.582 124 248 127.582 248 132C248 136.418 251.582 140 256 140Z" fill="#363636"/>
</svg>
