<svg width="191" height="81" viewBox="0 0 191 81" fill="none" xmlns="http://www.w3.org/2000/svg">
<path d="M136.76 10.8672C136.826 11.0323 136.951 11.1674 137.11 11.2472C143.629 14.5026 149.702 18.5828 155.18 23.3872C155.252 23.4529 155.337 23.5037 155.429 23.5367C155.52 23.5697 155.618 23.5843 155.715 23.5797C155.813 23.575 155.909 23.5512 155.997 23.5096C156.085 23.468 156.164 23.4094 156.23 23.3372C156.296 23.265 156.346 23.1805 156.379 23.0887C156.413 22.9968 156.427 22.8993 156.422 22.8018C156.418 22.7043 156.394 22.6087 156.352 22.5204C156.311 22.4321 156.252 22.3529 156.18 22.2872C150.605 17.417 144.428 13.2832 137.8 9.98721C137.667 9.92138 137.517 9.89754 137.371 9.9189C137.224 9.94025 137.087 10.0058 136.979 10.1067C136.87 10.2077 136.795 10.3393 136.763 10.4841C136.731 10.6289 136.744 10.7799 136.8 10.9172L136.76 10.8672Z" fill="#DCAD95"/>
<path d="M135.14 20.8572C135.206 21.0169 135.326 21.148 135.48 21.2272C141.953 24.5535 147.972 28.6974 153.39 33.5572C153.461 33.6229 153.545 33.6738 153.637 33.7071C153.728 33.7403 153.825 33.7553 153.922 33.7511C154.019 33.7469 154.114 33.7237 154.202 33.6827C154.29 33.6417 154.369 33.5838 154.435 33.5122C154.501 33.4406 154.551 33.3568 154.585 33.2656C154.618 33.1743 154.633 33.0774 154.629 32.9804C154.625 32.8834 154.601 32.7881 154.56 32.7C154.519 32.612 154.461 32.5329 154.39 32.4672C148.879 27.524 142.755 23.3095 136.17 19.9272C136.037 19.8614 135.887 19.8375 135.741 19.8589C135.594 19.8803 135.457 19.9458 135.349 20.0467C135.24 20.1477 135.165 20.2793 135.133 20.4241C135.101 20.5689 135.114 20.7199 135.17 20.8572H135.14Z" fill="#DCAD95"/>
<path d="M132.7 14.2072C132.769 14.3795 132.901 14.519 133.07 14.5972C139.66 17.6824 145.828 21.6011 151.42 26.2572C151.494 26.3189 151.58 26.3654 151.672 26.3941C151.764 26.4227 151.861 26.4329 151.957 26.4241C152.053 26.4152 152.147 26.3876 152.232 26.3427C152.317 26.2977 152.393 26.2364 152.455 26.1622C152.517 26.088 152.563 26.0024 152.592 25.9102C152.62 25.818 152.631 25.7211 152.622 25.625C152.613 25.5289 152.585 25.4355 152.54 25.3501C152.495 25.2647 152.434 25.1889 152.36 25.1272C146.67 20.3906 140.395 16.4046 133.69 13.2672C133.556 13.1995 133.405 13.1747 133.256 13.1961C133.108 13.2175 132.97 13.284 132.86 13.3867C132.751 13.4894 132.676 13.6233 132.646 13.7701C132.615 13.9169 132.631 14.0695 132.69 14.2072H132.7Z" fill="#DCAD95"/>
<path d="M65.3398 10.7372L72.8598 2.9472C68.8682 3.98321 64.9496 5.28273 61.1299 6.8372L56.3499 14.6672C59.2664 13.1811 62.2683 11.8688 65.3398 10.7372Z" fill="#DCAD95"/>
<path d="M78.98 6.99719C79.0486 6.91477 79.1341 6.84801 79.2307 6.80144C79.3273 6.75486 79.4328 6.72954 79.54 6.72719L86.83 0.437195C83.0488 0.817467 79.295 1.43198 75.59 2.27719L68.47 9.64719C71.9124 8.53768 75.4231 7.6525 78.98 6.99719V6.99719Z" fill="#DCAD95"/>
<path d="M119.28 8.55721L124.69 4.62721C121.542 3.59292 118.341 2.72833 115.1 2.0372L108.93 6.52721C112.412 7.02752 115.867 7.70506 119.28 8.55721V8.55721Z" fill="#DCAD95"/>
<path d="M90.9599 5.6272C91.8399 5.5872 92.7266 5.56053 93.6199 5.5472C93.6602 5.49455 93.7073 5.44748 93.7599 5.4072L101 0.147191C97.1355 -0.0728731 93.2609 -0.0461503 89.3999 0.227193L82.1499 6.47719C85.0366 6.05053 87.9732 5.7672 90.9599 5.6272Z" fill="#DCAD95"/>
<path d="M106.81 6.24719C106.86 6.16921 106.925 6.10136 107 6.0472L113.08 1.6272C109.856 1.01475 106.601 0.574116 103.33 0.30719L96.1399 5.53719C99.707 5.57627 103.269 5.81331 106.81 6.24719V6.24719Z" fill="#DCAD95"/>
<path d="M66.22 12.0172H66.15C66.036 12.1001 65.9007 12.1486 65.76 12.1572C62.6822 13.3082 59.6768 14.6439 56.76 16.1572L65.04 18.2372C68.2795 16.8866 71.6031 15.7475 74.99 14.8272L66.44 12.1272C66.3611 12.1029 66.2868 12.0657 66.22 12.0172V12.0172Z" fill="#DCAD95"/>
<path d="M93.9199 7.08722C92.9599 7.08722 91.9999 7.11722 91.0399 7.17722C88.0932 7.31722 85.1898 7.59723 82.3298 8.01723L91.0699 12.2072C94.3235 12.0079 97.5862 12.0079 100.84 12.2072L94.1798 7.38722C94.0678 7.31239 93.978 7.20876 93.9199 7.08722V7.08722Z" fill="#DCAD95"/>
<path d="M106.15 7.6772C102.86 7.2908 99.5522 7.07718 96.24 7.0372L103.72 12.3772C106.616 12.6634 109.494 13.1107 112.34 13.7172L106.18 7.71721L106.15 7.6772Z" fill="#DCAD95"/>
<path d="M108.62 7.99719L115.05 14.2572L115.13 14.3472C118.182 15.1108 121.187 16.0524 124.13 17.1672L119.19 10.0772C115.706 9.19816 112.177 8.50385 108.62 7.99719V7.99719Z" fill="#DCAD95"/>
<path d="M68.54 11.2172L77.73 14.1172C81.1384 13.3143 84.5958 12.7364 88.08 12.3872L79.72 8.38721C75.9317 9.06773 72.1959 10.0134 68.54 11.2172V11.2172Z" fill="#DCAD95"/>
<path d="M53.7299 16.0672C53.7669 15.9775 53.8213 15.8959 53.8898 15.8272L58.7599 7.82721C55.4846 9.26724 52.2958 10.8967 49.2098 12.7072L46.3499 20.6372C48.7322 18.9919 51.1953 17.4667 53.7299 16.0672V16.0672Z" fill="#DCAD95"/>
<path d="M54.2799 23.0672C57.0299 21.3872 59.8399 20.5572 62.7799 19.2272L54.7799 17.2272C52.0804 18.7112 49.4633 20.3402 46.9399 22.1072L53.4699 23.4872C53.7502 23.368 54.021 23.2276 54.2799 23.0672V23.0672Z" fill="#DCAD95"/>
<path d="M126.65 17.7072L126.33 17.5772C126.309 17.4878 126.272 17.4031 126.22 17.3272L121.42 10.6772C124.534 11.612 127.598 12.7068 130.6 13.9572V13.9572L133.6 20.2772L126.65 17.7072Z" fill="#DCAD95"/>
<path d="M131.52 7.18719C129.833 6.48053 128.13 5.81386 126.41 5.18719L121.15 9.0172C124.483 9.90386 127.763 10.9572 130.99 12.1772C131.036 12.1231 131.09 12.0759 131.15 12.0372L135.87 8.9572L131.52 7.18719Z" fill="#DCAD95"/>
<path d="M46.07 22.0172C46.1758 22.1746 46.2161 22.367 46.1825 22.5537C46.1489 22.7403 46.044 22.9066 45.89 23.0172C41.3611 26.2212 37.1577 29.862 33.34 33.8872L33 32.1172C36.6762 28.3237 40.6931 24.8759 45 21.8172C45.0814 21.7545 45.1751 21.7096 45.275 21.6856C45.3749 21.6616 45.4787 21.659 45.5797 21.6778C45.6807 21.6967 45.7766 21.7367 45.8611 21.7952C45.9456 21.8537 46.0168 21.9293 46.07 22.0172V22.0172Z" fill="#DCAD95"/>
<path d="M74.277 32.1055H71.5565V34.3303H74.7168V35.0072H70.7286V28.7296H74.6737V29.4108H71.5565V31.4286H74.277V32.1055ZM79.4512 32.209C78.7412 32.0049 78.2239 31.7549 77.8991 31.4588C77.5771 31.1599 77.4162 30.792 77.4162 30.3551C77.4162 29.8607 77.6131 29.4525 78.0068 29.1306C78.4035 28.8058 78.918 28.6434 79.5504 28.6434C79.9815 28.6434 80.3652 28.7267 80.7015 28.8935C81.0407 29.0602 81.3023 29.2901 81.4862 29.5833C81.6731 29.8765 81.7665 30.197 81.7665 30.5448H80.9344C80.9344 30.1654 80.8136 29.8679 80.5722 29.6523C80.3308 29.4338 79.9901 29.3246 79.5504 29.3246C79.1422 29.3246 78.8232 29.4152 78.5932 29.5962C78.3661 29.7744 78.2526 30.0231 78.2526 30.3421C78.2526 30.598 78.3604 30.815 78.576 30.9932C78.7944 31.1685 79.1638 31.3295 79.684 31.4761C80.2072 31.6227 80.6153 31.7851 80.9085 31.9633C81.2046 32.1386 81.423 32.3441 81.5639 32.5798C81.7076 32.8155 81.7794 33.0929 81.7794 33.4119C81.7794 33.9207 81.5811 34.3289 81.1844 34.6364C80.7878 34.9411 80.2575 35.0934 79.5935 35.0934C79.1623 35.0934 78.7599 35.0115 78.3863 34.8477C78.0126 34.681 77.7237 34.4539 77.5196 34.1665C77.3184 33.879 77.2178 33.5528 77.2178 33.1877H78.05C78.05 33.5672 78.1894 33.8675 78.4682 34.0888C78.7499 34.3073 79.125 34.4165 79.5935 34.4165C80.0304 34.4165 80.3652 34.3274 80.5981 34.1492C80.8309 33.971 80.9473 33.7281 80.9473 33.4206C80.9473 33.113 80.8395 32.8759 80.6239 32.7092C80.4084 32.5396 80.0175 32.3729 79.4512 32.209ZM89.0361 29.4108H87.0183V35.0072H86.1948V29.4108H84.1813V28.7296H89.0361V29.4108ZM98.1082 35.0072H97.3063V29.6911L95.6981 30.2818V29.5574L97.9832 28.6994H98.1082V35.0072ZM105.356 32.2478C105.19 32.4462 104.99 32.6057 104.757 32.7264C104.527 32.8471 104.274 32.9075 103.998 32.9075C103.636 32.9075 103.32 32.8184 103.05 32.6402C102.782 32.462 102.575 32.2119 102.429 31.89C102.282 31.5652 102.209 31.2073 102.209 30.8164C102.209 30.3967 102.288 30.0188 102.446 29.6825C102.607 29.3462 102.834 29.0889 103.127 28.9107C103.42 28.7325 103.762 28.6434 104.153 28.6434C104.774 28.6434 105.263 28.8762 105.619 29.3419C105.979 29.8046 106.158 30.437 106.158 31.2389V31.4718C106.158 32.6934 105.917 33.5858 105.434 34.1492C104.951 34.7097 104.222 34.9971 103.248 35.0115H103.093V34.3389H103.261C103.919 34.3274 104.425 34.1564 104.778 33.8258C105.132 33.4924 105.325 32.9664 105.356 32.2478ZM104.127 32.2478C104.395 32.2478 104.641 32.1659 104.865 32.0021C105.092 31.8382 105.257 31.6356 105.361 31.3941V31.0751C105.361 30.552 105.247 30.1266 105.02 29.7989C104.793 29.4712 104.505 29.3074 104.158 29.3074C103.807 29.3074 103.525 29.4425 103.313 29.7127C103.1 29.98 102.994 30.3335 102.994 30.7733C102.994 31.2016 103.096 31.5551 103.3 31.8339C103.507 32.1099 103.783 32.2478 104.127 32.2478ZM112.919 30.368C112.919 30.6813 112.836 30.9601 112.669 31.2044C112.505 31.4488 112.282 31.6399 112.001 31.7779C112.328 31.9187 112.587 32.1242 112.777 32.3944C112.969 32.6646 113.066 32.9707 113.066 33.3128C113.066 33.856 112.882 34.2886 112.514 34.6105C112.149 34.9325 111.667 35.0934 111.069 35.0934C110.466 35.0934 109.981 34.9325 109.616 34.6105C109.254 34.2857 109.073 33.8532 109.073 33.3128C109.073 32.9736 109.165 32.6675 109.349 32.3944C109.536 32.1214 109.793 31.9144 110.121 31.7736C109.842 31.6356 109.622 31.4444 109.461 31.2001C109.3 30.9558 109.22 30.6784 109.22 30.368C109.22 29.8391 109.389 29.4195 109.728 29.109C110.068 28.7986 110.515 28.6434 111.069 28.6434C111.621 28.6434 112.067 28.7986 112.406 29.109C112.748 29.4195 112.919 29.8391 112.919 30.368ZM112.268 33.2955C112.268 32.9449 112.156 32.6589 111.932 32.4375C111.71 32.2162 111.42 32.1055 111.061 32.1055C110.701 32.1055 110.413 32.2148 110.194 32.4332C109.979 32.6517 109.871 32.9391 109.871 33.2955C109.871 33.6519 109.976 33.9322 110.185 34.1363C110.398 34.3404 110.693 34.4424 111.069 34.4424C111.443 34.4424 111.736 34.3404 111.949 34.1363C112.162 33.9293 112.268 33.6491 112.268 33.2955ZM111.069 29.2987C110.756 29.2987 110.502 29.3965 110.306 29.5919C110.114 29.7845 110.017 30.0475 110.017 30.3809C110.017 30.7 110.112 30.9587 110.302 31.157C110.494 31.3525 110.75 31.4502 111.069 31.4502C111.388 31.4502 111.643 31.3525 111.832 31.157C112.025 30.9587 112.121 30.7 112.121 30.3809C112.121 30.0619 112.022 29.8018 111.824 29.6006C111.626 29.3993 111.374 29.2987 111.069 29.2987ZM119.977 29.178L117.377 35.0072H116.541L119.132 29.385H115.735V28.7296H119.977V29.178Z" fill="#DCAD95"/>
<path d="M23.1616 57.4859C23.6441 57.2075 24.0803 56.8642 24.4701 56.4559C24.7856 56.1032 25.0825 55.6764 25.3609 55.1752C25.6393 54.6741 25.7785 54.0709 25.7785 53.3657C25.7785 52.7346 25.6393 52.1778 25.3609 51.6953C25.0825 51.2127 24.7113 50.8044 24.2473 50.4703C23.7833 50.1362 23.2544 49.8857 22.6605 49.7186C22.0666 49.5516 21.4541 49.4681 20.823 49.4681C19.5424 49.4681 18.3917 49.6351 17.3709 49.9692C16.3687 50.3033 15.5149 50.758 14.8097 51.3334C14.1229 51.8901 13.594 52.549 13.2228 53.31C12.8702 54.0709 12.6938 54.869 12.6938 55.7042C12.6938 56.1311 12.7588 56.493 12.8887 56.7899C13.0372 57.0683 13.195 57.3096 13.362 57.5138C13.5476 57.6994 13.7053 57.8571 13.8353 57.9871C13.9837 58.0984 14.058 58.2005 14.058 58.2933C14.058 58.6459 13.8631 58.8222 13.4734 58.8222C13.1022 58.8222 12.6567 58.7387 12.137 58.5717C11.6359 58.4046 11.1534 58.1726 10.6894 57.8757C10.2439 57.5602 9.85418 57.189 9.52011 56.7621C9.20459 56.3167 9.04683 55.8156 9.04683 55.2588C9.04683 54.2194 9.38091 53.2543 10.0491 52.3634C10.7358 51.454 11.6266 50.6745 12.7217 50.0249C13.8353 49.3567 15.0973 48.8371 16.5079 48.4659C17.937 48.0761 19.3939 47.8812 20.8787 47.8812C21.9366 47.8812 22.9481 47.9926 23.9133 48.2153C24.8969 48.438 25.76 48.7814 26.5024 49.2454C27.2633 49.6908 27.8665 50.2569 28.3119 50.9436C28.7759 51.6117 29.0079 52.3913 29.0079 53.2821C29.0079 53.8204 28.9059 54.3215 28.7017 54.7855C28.5161 55.2495 28.2748 55.6764 27.9779 56.0661C27.6995 56.4373 27.3932 56.7714 27.0591 57.0683C26.7251 57.3467 26.4096 57.588 26.1126 57.7922C25.8156 57.9963 25.5558 58.1541 25.3331 58.2654C25.1289 58.3768 25.0083 58.4325 24.9712 58.4325C24.9897 58.4325 25.166 58.5253 25.5001 58.7109C25.8342 58.8779 26.1961 59.147 26.5859 59.5182C26.9756 59.8709 27.3283 60.3349 27.6438 60.9102C27.9779 61.4856 28.1449 62.1909 28.1449 63.026C28.1449 63.954 27.95 64.7521 27.5603 65.4203C27.1705 66.0884 26.6694 66.6359 26.0569 67.0628C25.4444 67.4897 24.7577 67.8052 23.9968 68.0094C23.2544 68.2135 22.5213 68.3156 21.7974 68.3156C20.5354 68.3156 19.3383 68.0929 18.2061 67.6474C17.074 67.202 15.9975 66.7102 14.9767 66.1719C14.3457 66.8772 13.6589 67.4154 12.9166 67.7866C12.1742 68.1393 11.3019 68.3156 10.2996 68.3156C9.72426 68.3156 9.16747 68.2414 8.62923 68.0929C8.10956 67.9444 7.63628 67.731 7.20941 67.4526C6.80109 67.1742 6.46701 66.8401 6.20718 66.4503C5.9659 66.0606 5.84526 65.6244 5.84526 65.1419C5.84526 64.6222 5.95662 64.1582 6.17934 63.7499C6.40205 63.3416 6.68045 62.9982 7.01453 62.7198C7.36717 62.4414 7.74764 62.228 8.15596 62.0795C8.58284 61.931 9.00043 61.8568 9.40875 61.8568C10.1326 61.8568 10.8379 61.9774 11.5246 62.2187C12.2298 62.46 12.9258 62.7569 13.6125 63.1096L13.9188 62.5806C14.1786 62.1166 14.4477 61.5505 14.7261 60.8824C15.0045 60.1957 15.2829 59.4811 15.5613 58.7387C15.8583 57.9778 16.146 57.2168 16.4244 56.4559C16.7028 55.6764 16.9719 54.9711 17.2317 54.34C17.4916 53.6905 17.7421 53.1429 17.9834 52.6975C18.2247 52.2335 18.4381 51.9458 18.6237 51.8345C19.2919 51.389 19.9415 51.0921 20.5725 50.9436C21.2221 50.7766 21.7046 50.693 22.0202 50.693C22.2243 50.693 22.3542 50.7302 22.4099 50.8044C22.4656 50.8786 22.4934 50.9714 22.4934 51.0828C22.4934 51.1942 22.3078 51.4633 21.9366 51.8901C21.5654 52.317 21.2128 52.9017 20.8787 53.6441C20.7859 53.8482 20.6096 54.3215 20.3498 55.0639C20.1085 55.7877 19.8023 56.6322 19.4311 57.5973C19.0599 58.5624 18.6515 59.5739 18.2061 60.6318C17.7607 61.6712 17.306 62.5992 16.842 63.4158C16.7306 63.62 16.6192 63.8148 16.5079 64.0004C16.3965 64.186 16.2852 64.3716 16.1738 64.5572C16.9533 64.9841 17.7143 65.3553 18.4567 65.6708C19.1991 65.9863 19.96 66.1441 20.7395 66.1441C21.2592 66.1441 21.751 66.0606 22.215 65.8935C22.679 65.7079 23.0873 65.4481 23.44 65.114C23.8112 64.78 24.0989 64.3809 24.303 63.9169C24.5257 63.4344 24.6371 62.8961 24.6371 62.3022C24.6371 61.3928 24.4422 60.6782 24.0525 60.1586C23.6813 59.6203 23.3008 59.3326 22.911 59.2955C22.7625 59.3512 22.6048 59.4069 22.4378 59.4626C22.2893 59.4997 22.1315 59.5368 21.9645 59.5739C21.7974 59.611 21.6397 59.6296 21.4912 59.6296C21.0829 59.6296 20.7302 59.5275 20.4333 59.3234C20.1549 59.1006 20.0157 58.8037 20.0157 58.4325C20.0157 58.0242 20.1549 57.7179 20.4333 57.5138C20.7302 57.2911 21.0643 57.1797 21.4355 57.1797C21.6397 57.1797 21.8346 57.1983 22.0202 57.2354C22.2243 57.2725 22.4099 57.3096 22.5769 57.3467C22.7811 57.4024 22.976 57.4488 23.1616 57.4859ZM9.60363 63.9726C9.17675 63.9726 8.82411 64.1118 8.54572 64.3902C8.26732 64.6686 8.12812 64.9934 8.12812 65.3646C8.12812 65.7358 8.28588 66.042 8.60139 66.2833C8.93547 66.506 9.32523 66.6174 9.77066 66.6174C10.346 66.6174 10.8379 66.4782 11.2462 66.1998C11.673 65.9028 12.0999 65.4574 12.5268 64.8635C11.9886 64.6036 11.4782 64.3902 10.9956 64.2232C10.5131 64.0561 10.0491 63.9726 9.60363 63.9726ZM43.5586 64.8913C43.1502 65.5409 42.6955 66.1163 42.1944 66.6174C41.7675 67.0442 41.2571 67.434 40.6632 67.7866C40.0879 68.1393 39.4568 68.3156 38.7701 68.3156C37.9906 68.3156 37.3317 68.1207 36.7935 67.731C36.2553 67.3226 35.9397 66.7287 35.8469 65.9492C35.4757 66.4132 35.0767 66.8123 34.6498 67.1463C34.2786 67.4433 33.861 67.7124 33.397 67.9537C32.933 68.195 32.4319 68.3156 31.8937 68.3156C31.5225 68.3156 31.1606 68.2414 30.8079 68.0929C30.4739 67.963 30.1769 67.7681 29.9171 67.5082C29.6758 67.2484 29.4809 66.9422 29.3324 66.5895C29.184 66.2369 29.1097 65.8471 29.1097 65.4203C29.1097 64.418 29.2953 63.4251 29.6665 62.4414C30.0563 61.4577 30.5574 60.5761 31.1699 59.7966C31.7823 58.9986 32.4691 58.3582 33.23 57.8757C33.991 57.3931 34.7519 57.1519 35.5129 57.1519C36.0697 57.1519 36.5429 57.2261 36.9327 57.3746C37.3224 57.5045 37.638 57.653 37.8792 57.82C38.1576 58.0242 38.3804 58.2376 38.5474 58.4603C38.7516 58.4603 38.965 58.4882 39.1877 58.5438C39.429 58.581 39.6424 58.6552 39.828 58.7666C40.0322 58.8594 40.1992 58.9893 40.3291 59.1563C40.4591 59.3234 40.524 59.5275 40.524 59.7688C40.524 59.973 40.4405 60.307 40.2735 60.771C40.1064 61.235 39.9208 61.7547 39.7167 62.3301C39.5125 62.8868 39.3269 63.4715 39.1599 64.084C38.9928 64.6779 38.9093 65.2068 38.9093 65.6708C38.9093 65.8935 38.9743 66.0791 39.1042 66.2276C39.2527 66.3761 39.4475 66.4503 39.6888 66.4503C40.06 66.4503 40.4219 66.3297 40.7746 66.0884C41.1458 65.8471 41.4706 65.5687 41.749 65.2532C42.083 64.9191 42.3893 64.5201 42.6677 64.0561C42.6862 64.0004 42.7326 63.9355 42.8069 63.8612C42.844 63.8241 42.8997 63.787 42.9739 63.7499C43.0482 63.6942 43.1317 63.6664 43.2245 63.6664C43.373 63.6664 43.5029 63.722 43.6142 63.8334C43.7441 63.9448 43.8091 64.0747 43.8091 64.2232C43.8091 64.2974 43.7905 64.3716 43.7534 64.4459C43.7349 64.5016 43.707 64.5665 43.6699 64.6408C43.6328 64.715 43.5957 64.7985 43.5586 64.8913ZM37.0997 59.9637C37.0997 59.5554 36.9976 59.2584 36.7935 59.0728C36.6079 58.8686 36.3759 58.7666 36.0975 58.7666C35.6892 58.7666 35.2716 58.98 34.8447 59.4069C34.4178 59.8338 34.0281 60.3627 33.6754 60.9937C33.3414 61.6062 33.063 62.2744 32.8402 62.9982C32.6175 63.722 32.5062 64.3716 32.5062 64.947C32.5062 65.7822 32.7753 66.1998 33.3135 66.1998C33.6476 66.1998 34.0281 65.9771 34.455 65.5316C34.9004 65.0862 35.318 64.5387 35.7077 63.8891C36.0975 63.2395 36.4223 62.562 36.6821 61.8568C36.9605 61.1329 37.0997 60.5019 37.0997 59.9637ZM56.521 64.8913C56.0941 65.5409 55.6301 66.1163 55.129 66.6174C54.7021 67.0442 54.1917 67.434 53.5978 67.7866C53.0225 68.1393 52.4007 68.3156 51.7326 68.3156C51.2314 68.3156 50.6839 68.1671 50.09 67.8702C49.4961 67.5546 48.9393 67.1742 48.4196 66.7287C47.9185 66.2647 47.4916 65.7729 47.139 65.2532C46.8049 64.7336 46.6379 64.2603 46.6379 63.8334C46.6379 63.6478 46.842 63.4436 47.2504 63.2209C47.6772 62.9796 48.132 62.7012 48.6145 62.3857C49.1156 62.0702 49.5703 61.7083 49.9787 61.3C50.4055 60.8917 50.619 60.4091 50.619 59.8523C50.619 59.3326 50.4055 59.0728 49.9787 59.0728C49.4775 59.0728 48.9579 59.277 48.4196 59.6853C47.9 60.0936 47.4174 60.6782 46.972 61.4392C46.5265 62.1816 46.1646 63.091 45.8862 64.1675C45.6078 65.2254 45.4686 66.4225 45.4686 67.7588C45.4686 67.9258 45.4315 68.0558 45.3573 68.1486C45.3016 68.2599 45.1717 68.3156 44.9675 68.3156C44.7819 68.3156 44.5313 68.2878 44.2158 68.2321C43.9189 68.195 43.6219 68.1207 43.325 68.0094C43.028 67.898 42.7774 67.7495 42.5733 67.5639C42.3506 67.3783 42.2392 67.137 42.2392 66.8401C42.2392 66.0235 42.3413 65.0027 42.5454 63.7777C42.7496 62.5528 43.0466 61.2721 43.4363 59.9358C43.8261 58.581 44.2901 57.2354 44.8283 55.8991C45.3851 54.5442 45.9976 53.3378 46.6657 52.2799C47.3339 51.2034 48.0577 50.3311 48.8372 49.663C49.6167 48.9948 50.4427 48.6607 51.315 48.6607C51.6119 48.6607 51.9089 48.7443 52.2058 48.9113C52.5028 49.0598 52.7719 49.2639 53.0132 49.5238C53.2545 49.765 53.4401 50.0342 53.57 50.3311C53.7185 50.6095 53.7927 50.8694 53.7927 51.1106C53.7927 51.5004 53.6906 51.9365 53.4865 52.4191C53.3009 52.8831 53.0596 53.3657 52.7626 53.8668C52.4842 54.3493 52.178 54.8226 51.8439 55.2866C51.5098 55.7506 51.1943 56.1682 50.8974 56.5394C50.6004 56.892 50.3499 57.189 50.1457 57.4303C49.9415 57.653 49.8302 57.7736 49.8116 57.7922C49.8302 57.7736 49.9137 57.7365 50.0622 57.6808C50.2107 57.6066 50.387 57.5323 50.5911 57.4581C50.8139 57.3839 51.0644 57.3189 51.3428 57.2632C51.6212 57.189 51.9089 57.1519 52.2058 57.1519C52.6884 57.1519 53.1153 57.3653 53.4865 57.7922C53.8762 58.219 54.0711 58.7202 54.0711 59.2955C54.0711 59.8338 53.8391 60.3349 53.3751 60.7989C52.9111 61.2629 52.4007 61.6805 51.8439 62.0517C51.1943 62.4785 50.4612 62.8776 49.6446 63.2488C49.6446 63.3972 49.7281 63.6107 49.8951 63.8891C50.0807 64.1675 50.322 64.4552 50.619 64.7521C50.9159 65.0491 51.2593 65.3089 51.649 65.5316C52.0574 65.7358 52.475 65.8379 52.9018 65.8379C53.3101 65.8379 53.6813 65.7451 54.0154 65.5595C54.3495 65.3739 54.6372 65.1697 54.8785 64.947C55.1569 64.6872 55.4074 64.3902 55.6301 64.0561C55.6487 64.0004 55.6951 63.9355 55.7693 63.8612C55.8064 63.8241 55.8621 63.787 55.9364 63.7499C56.0106 63.6942 56.0941 63.6664 56.1869 63.6664C56.3354 63.6664 56.4653 63.722 56.5767 63.8334C56.7066 63.9448 56.7716 64.0747 56.7716 64.2232C56.7716 64.2974 56.753 64.3716 56.7159 64.4459C56.6973 64.5016 56.6695 64.5665 56.6324 64.6408C56.5952 64.715 56.5581 64.7985 56.521 64.8913ZM52.4286 51.0828C52.4286 50.7116 52.2615 50.526 51.9274 50.526C51.6676 50.526 51.3521 50.7302 50.9809 51.1385C50.6283 51.5468 50.2385 52.1221 49.8116 52.8645C49.4033 53.6069 48.9671 54.4978 48.5032 55.5372C48.0577 56.5579 47.6123 57.6808 47.1668 58.9058C47.4638 58.6274 47.7979 58.284 48.1691 57.8757C48.5588 57.4674 48.9486 57.0219 49.3383 56.5394C49.7281 56.0383 50.1086 55.5279 50.4798 55.0082C50.851 54.4885 51.1758 53.9874 51.4542 53.5049C51.7511 53.0223 51.9831 52.5676 52.1502 52.1407C52.3358 51.7138 52.4286 51.3612 52.4286 51.0828ZM58.9659 62.8868C59.467 62.8868 59.9403 62.7476 60.3857 62.4693C60.8312 62.1909 61.2116 61.8568 61.5271 61.467C61.8612 61.0587 62.1211 60.6411 62.3067 60.2142C62.4923 59.7874 62.5851 59.4254 62.5851 59.1285C62.5851 58.7573 62.418 58.5717 62.0839 58.5717C61.6942 58.5717 61.3137 58.7294 60.9425 59.045C60.5713 59.3605 60.2372 59.741 59.9403 60.1864C59.6619 60.6318 59.4299 61.1051 59.2443 61.6062C59.0587 62.1073 58.9659 62.5342 58.9659 62.8868ZM66.4548 64.8913C66.0465 65.5409 65.5361 66.1163 64.9236 66.6174C64.4039 67.0442 63.7543 67.434 62.9748 67.7866C62.2139 68.1393 61.3044 68.3156 60.2465 68.3156C59.5412 68.3156 58.8917 68.2135 58.2977 68.0094C57.7038 67.8052 57.1934 67.5268 56.7666 67.1742C56.3397 66.803 56.0056 66.3668 55.7643 65.8657C55.523 65.3646 55.4024 64.8171 55.4024 64.2232C55.4024 63.1652 55.5973 62.2001 55.987 61.3278C56.3768 60.4555 56.8686 59.7131 57.4625 59.1006C58.0565 58.4696 58.6968 57.9871 59.3835 57.653C60.0888 57.3189 60.7476 57.1519 61.3601 57.1519C61.787 57.1519 62.186 57.2354 62.5572 57.4024C62.9284 57.5695 63.2532 57.7922 63.5316 58.0706C63.81 58.3304 64.0234 58.6366 64.1719 58.9893C64.339 59.3419 64.4225 59.7038 64.4225 60.075C64.4225 60.4091 64.3482 60.8174 64.1998 61.3C64.0513 61.764 63.8007 62.2094 63.4481 62.6363C63.114 63.0632 62.65 63.4344 62.0561 63.7499C61.4807 64.0468 60.7569 64.1953 59.8846 64.1953C59.6804 64.1953 59.467 64.1675 59.2443 64.1118C59.1144 64.0932 58.9752 64.0654 58.8267 64.0283C58.8267 64.8635 59.068 65.5038 59.5505 65.9492C60.0331 66.3947 60.6084 66.6174 61.2766 66.6174C61.9262 66.6174 62.5201 66.4875 63.0583 66.2276C63.5966 65.9492 64.0513 65.6523 64.4225 65.3367C64.8679 64.9655 65.2484 64.5387 65.5639 64.0561C65.5825 64.0004 65.6289 63.9355 65.7031 63.8612C65.7402 63.8241 65.7959 63.787 65.8702 63.7499C65.9444 63.6942 66.0279 63.6664 66.1207 63.6664C66.2692 63.6664 66.3991 63.722 66.5105 63.8334C66.6404 63.9448 66.7053 64.0747 66.7053 64.2232C66.7053 64.2974 66.6868 64.3716 66.6497 64.4459C66.6311 64.5016 66.6033 64.5665 66.5661 64.6408C66.529 64.715 66.4919 64.7985 66.4548 64.8913ZM72.6191 65.4759C72.6191 65.7915 72.7026 66.0327 72.8697 66.1998C73.0367 66.3668 73.2594 66.4503 73.5378 66.4503C73.909 66.4503 74.2709 66.3297 74.6236 66.0884C74.9948 65.8471 75.3196 65.5687 75.598 65.2532C75.932 64.9191 76.2383 64.5201 76.5167 64.0561C76.5352 64.0004 76.5816 63.9355 76.6559 63.8612C76.693 63.8241 76.7487 63.787 76.8229 63.7499C76.8972 63.6942 76.9807 63.6664 77.0735 63.6664C77.222 63.6664 77.3519 63.722 77.4632 63.8334C77.5932 63.9448 77.6581 64.0747 77.6581 64.2232C77.6581 64.2974 77.6396 64.3716 77.6024 64.4459C77.5839 64.5016 77.556 64.5665 77.5189 64.6408C77.4818 64.715 77.4447 64.7985 77.4076 64.8913C76.9992 65.5409 76.5445 66.1163 76.0434 66.6174C75.6165 67.0442 75.1061 67.434 74.5122 67.7866C73.9369 68.1393 73.3058 68.3156 72.6191 68.3156C72.0809 68.3156 71.5983 68.2414 71.1715 68.0929C70.7446 67.9444 70.3734 67.7495 70.0579 67.5082C69.7423 67.2484 69.5011 66.9515 69.334 66.6174C69.167 66.2833 69.0835 65.9214 69.0835 65.5316C69.0835 64.9191 69.1763 64.3438 69.3619 63.8056C69.5475 63.2673 69.7423 62.7755 69.9465 62.3301C70.1692 61.8846 70.3734 61.4949 70.559 61.1608C70.7446 60.8081 70.8374 60.5205 70.8374 60.2978C70.8374 60.1493 70.7446 60.0379 70.559 59.9637C70.3919 59.8894 70.2063 59.8245 70.0022 59.7688C69.7609 59.7131 69.4825 59.6667 69.167 59.6296C68.6288 60.9845 68.1184 62.0981 67.6358 62.9704C67.1532 63.8241 66.7635 64.4644 66.4665 64.8913C66.4294 64.947 66.3552 65.0305 66.2438 65.1419C66.151 65.2532 66.0211 65.3089 65.8541 65.3089C65.7056 65.3089 65.5757 65.2532 65.4643 65.1419C65.3344 65.0119 65.2694 64.8727 65.2694 64.7243C65.2694 64.5944 65.3158 64.4737 65.4086 64.3624C65.4829 64.2324 65.5385 64.1304 65.5757 64.0561C65.8355 63.6849 66.1974 63.1003 66.6614 62.3022C67.144 61.4856 67.5894 60.4184 67.9977 59.1006C67.8121 58.9707 67.6544 58.8037 67.5244 58.5995C67.4131 58.4325 67.311 58.219 67.2182 57.9592C67.1254 57.6994 67.079 57.3931 67.079 57.0405C67.079 56.7621 67.1254 56.5023 67.2182 56.261C67.3296 56.0011 67.4688 55.7784 67.6358 55.5928C67.8028 55.4072 67.9792 55.2588 68.1648 55.1474C68.3504 55.036 68.5267 54.9804 68.6937 54.9804C68.8793 54.9804 69.0742 55.036 69.2783 55.1474C69.4825 55.2402 69.6681 55.3608 69.8351 55.5093C70.0022 55.6392 70.1414 55.797 70.2527 55.9826C70.3641 56.1496 70.4198 56.2981 70.4198 56.428C70.4198 56.7992 70.3548 57.1055 70.2249 57.3467C70.1135 57.588 70.0579 57.82 70.0579 58.0427C70.0579 58.2469 70.1692 58.3954 70.3919 58.4882C70.6147 58.581 70.8931 58.6274 71.2271 58.6274C71.5426 58.6274 71.8025 58.6088 72.0066 58.5717C72.2294 58.5346 72.4242 58.4974 72.5913 58.4603C72.7583 58.4046 72.9161 58.3582 73.0646 58.3211C73.213 58.284 73.3708 58.2654 73.5378 58.2654C73.8719 58.2654 74.141 58.3954 74.3452 58.6552C74.5679 58.915 74.6793 59.2306 74.6793 59.6018C74.6793 59.9173 74.5679 60.2978 74.3452 60.7432C74.141 61.1701 73.909 61.6433 73.6492 62.163C73.3894 62.6827 73.1481 63.2302 72.9254 63.8056C72.7212 64.3624 72.6191 64.9191 72.6191 65.4759ZM82.1007 69.7911C82.1564 69.5498 82.2214 69.2529 82.2956 68.9002C82.3884 68.5662 82.4719 68.2321 82.5462 67.898C82.639 67.5454 82.7132 67.2206 82.7689 66.9236C82.8431 66.6081 82.8988 66.3761 82.9359 66.2276C82.7132 66.4875 82.4534 66.7473 82.1564 67.0071C81.878 67.2484 81.5718 67.4711 81.2377 67.6753C80.9036 67.8609 80.551 68.0094 80.1798 68.1207C79.8271 68.2506 79.4745 68.3156 79.1219 68.3156C78.8064 68.3156 78.4723 68.2414 78.1196 68.0929C77.7856 67.963 77.4793 67.7774 77.2009 67.5361C76.9225 67.2948 76.6905 67.0071 76.5049 66.6731C76.3193 66.339 76.2265 65.9863 76.2265 65.6151C76.2265 65.114 76.3101 64.4923 76.4771 63.7499C76.6441 63.0075 76.839 62.2558 77.0617 61.4949C77.2844 60.7153 77.5164 59.9822 77.7577 59.2955C78.0176 58.6088 78.231 58.0706 78.398 57.6808C78.4723 57.5323 78.5744 57.4117 78.7043 57.3189C78.8342 57.2075 78.9827 57.1519 79.1497 57.1519C79.3539 57.1519 79.5859 57.2168 79.8457 57.3467C80.1055 57.4767 80.3468 57.6251 80.5695 57.7922C80.7923 57.9592 80.9779 58.1355 81.1263 58.3211C81.2748 58.4882 81.3491 58.6274 81.3491 58.7387C81.3491 59.1099 81.2563 59.5646 81.0707 60.1029C80.8851 60.6411 80.6716 61.2257 80.4303 61.8568C80.2076 62.4878 80.0035 63.1374 79.8179 63.8056C79.6323 64.4737 79.5395 65.114 79.5395 65.7265C79.5395 65.9492 79.5951 66.1441 79.7065 66.3111C79.8179 66.4782 79.9756 66.5617 80.1798 66.5617C80.4025 66.5617 80.6345 66.506 80.8758 66.3947C81.1171 66.2647 81.3491 66.107 81.5718 65.9214C81.7945 65.7172 81.9986 65.5038 82.1842 65.2811C82.3698 65.0398 82.5183 64.8078 82.6297 64.5851C82.8895 64.1025 83.1308 63.5643 83.3535 62.9704C83.5762 62.3579 83.7804 61.7454 83.966 61.1329C84.1701 60.5019 84.3465 59.8894 84.4949 59.2955C84.662 58.7016 84.8197 58.1634 84.9682 57.6808C85.0053 57.5138 85.0981 57.3839 85.2466 57.2911C85.3951 57.1983 85.5621 57.1519 85.7477 57.1519C85.9519 57.1519 86.1746 57.2168 86.4159 57.3467C86.6757 57.4767 86.917 57.6251 87.1397 57.7922C87.3624 57.9592 87.548 58.1355 87.6965 58.3211C87.845 58.4882 87.9192 58.6274 87.9192 58.7387C87.9192 58.9429 87.8636 59.277 87.7522 59.741C87.6408 60.205 87.4924 60.771 87.3068 61.4392C87.1397 62.0888 86.9448 62.8126 86.7221 63.6107C86.518 64.3902 86.3231 65.2068 86.1375 66.0606C86.1004 66.1719 86.0447 66.3854 85.9705 66.7009C85.8962 66.9979 85.8127 67.3134 85.7199 67.6474C85.6457 67.9815 85.5714 68.3063 85.4972 68.6218C85.4229 68.9374 85.3673 69.1601 85.3301 69.29C86.2396 69.0858 87.0098 68.9838 87.6408 68.9838C87.8636 68.9838 88.077 69.0209 88.2812 69.0951C88.5039 69.1694 88.6152 69.29 88.6152 69.457C88.6152 69.6241 88.5224 69.8282 88.3368 70.0695C88.1698 70.3293 88.0028 70.4593 87.8357 70.4593C87.6687 70.4593 87.4831 70.4221 87.2789 70.3479C87.0748 70.2922 86.7685 70.2644 86.3602 70.2644C86.1932 70.2644 86.0261 70.2737 85.8591 70.2922C85.7106 70.3108 85.5714 70.3386 85.4415 70.3757C85.293 70.4129 85.1538 70.4407 85.0239 70.4593C84.8012 71.2945 84.5413 72.1111 84.2444 72.9092C83.9474 73.7072 83.5762 74.4125 83.1308 75.025C82.7039 75.656 82.1842 76.1571 81.5718 76.5283C80.9779 76.8995 80.254 77.0851 79.4003 77.0851C78.9734 77.0851 78.5651 77.0109 78.1753 76.8624C77.8041 76.7325 77.47 76.5469 77.1731 76.3056C76.8947 76.0829 76.672 75.8045 76.5049 75.4704C76.3379 75.1549 76.2544 74.8115 76.2544 74.4403C76.2544 74.032 76.4121 73.6144 76.7277 73.1876C77.0617 72.7792 77.4979 72.3709 78.0361 71.9626C78.5744 71.5728 79.1961 71.1924 79.9014 70.8212C80.6067 70.45 81.3398 70.1066 82.1007 69.7911ZM78.7043 75.6096C79.0198 75.6096 79.3168 75.489 79.5951 75.2477C79.8735 75.025 80.1334 74.7187 80.3747 74.329C80.6345 73.9392 80.8665 73.4845 81.0707 72.9648C81.2934 72.4637 81.4975 71.944 81.6831 71.4058C81.2006 71.6656 80.7459 71.944 80.319 72.241C79.9107 72.5565 79.5487 72.872 79.2332 73.1876C78.9177 73.5031 78.6672 73.8186 78.4816 74.1341C78.296 74.4496 78.2032 74.7559 78.2032 75.0528C78.2032 75.424 78.3702 75.6096 78.7043 75.6096ZM107.871 65.8935C108.874 65.8935 109.792 65.6151 110.628 65.0583C111.463 64.483 112.177 63.7406 112.771 62.8312C113.384 61.9217 113.857 60.8917 114.191 59.741C114.525 58.5717 114.692 57.3839 114.692 56.1775C114.692 55.0082 114.507 54.006 114.135 53.1708C113.764 52.317 113.272 51.621 112.66 51.0828C112.047 50.526 111.342 50.1177 110.544 49.8578C109.746 49.598 108.929 49.4681 108.094 49.4681C106.814 49.4681 105.663 49.6351 104.642 49.9692C103.64 50.3033 102.786 50.758 102.081 51.3334C101.394 51.8901 100.865 52.549 100.494 53.31C100.141 54.0709 99.9649 54.869 99.9649 55.7042C99.9649 56.1311 100.03 56.493 100.16 56.7899C100.308 57.0683 100.466 57.3096 100.633 57.5138C100.819 57.6994 100.976 57.8571 101.106 57.9871C101.255 58.0984 101.329 58.2005 101.329 58.2933C101.329 58.6459 101.134 58.8222 100.744 58.8222C100.373 58.8222 99.9278 58.7387 99.4081 58.5717C98.907 58.4046 98.4245 58.1634 97.9605 57.8479C97.515 57.5323 97.1253 57.1611 96.7912 56.7343C96.4757 56.2888 96.3179 55.7877 96.3179 55.2309C96.3179 54.1916 96.652 53.2265 97.3202 52.3356C98.0069 51.4447 98.8977 50.6745 99.9928 50.0249C101.106 49.3567 102.368 48.8371 103.779 48.4659C105.208 48.0761 106.665 47.8812 108.15 47.8812C109.208 47.8812 110.331 48.0575 111.518 48.4102C112.706 48.7628 113.801 49.3103 114.804 50.0527C115.806 50.7951 116.632 51.7509 117.281 52.9202C117.949 54.0709 118.283 55.4536 118.283 57.0683C118.283 58.4789 118.061 59.8616 117.615 61.2165C117.17 62.5528 116.548 63.7499 115.75 64.8078C114.952 65.8657 114.005 66.7195 112.91 67.369C111.815 68.0001 110.618 68.3156 109.319 68.3156C108.113 68.3156 106.953 68.1114 105.839 67.7031C104.744 67.2948 103.686 66.8308 102.665 66.3111C101.96 66.9979 101.181 67.5082 100.327 67.8423C99.4731 68.1578 98.5544 68.3156 97.5707 68.3156C96.9954 68.3156 96.4386 68.2414 95.9003 68.0929C95.3806 67.9444 94.9074 67.731 94.4805 67.4526C94.0722 67.1742 93.7381 66.8401 93.4783 66.4503C93.237 66.0606 93.1163 65.6244 93.1163 65.1419C93.1163 64.6222 93.2277 64.1582 93.4504 63.7499C93.6731 63.3416 93.9515 62.9982 94.2856 62.7198C94.6383 62.4414 95.0187 62.228 95.427 62.0795C95.8539 61.931 96.2715 61.8568 96.6798 61.8568C97.515 61.8568 98.3131 62.0053 99.0741 62.3022C99.835 62.5806 100.596 62.9147 101.357 63.3044C101.431 63.1931 101.496 63.0817 101.552 62.9704C101.607 62.8404 101.663 62.7105 101.719 62.5806C101.942 62.0795 102.183 61.4856 102.443 60.7989C102.703 60.0936 102.962 59.3698 103.222 58.6274C103.501 57.8664 103.77 57.1055 104.03 56.3445C104.289 55.5836 104.549 54.8968 104.809 54.2844C105.069 53.6533 105.31 53.1151 105.533 52.6697C105.774 52.2242 105.988 51.9458 106.173 51.8345C106.841 51.389 107.491 51.0921 108.122 50.9436C108.772 50.7766 109.254 50.693 109.57 50.693C109.755 50.693 109.876 50.7302 109.932 50.8044C109.987 50.8786 110.015 50.9714 110.015 51.0828C110.015 51.1942 109.829 51.4633 109.458 51.8901C109.106 52.317 108.762 52.9017 108.428 53.6441C108.335 53.8482 108.168 54.2936 107.927 54.9804C107.686 55.6671 107.389 56.4837 107.036 57.4303C106.702 58.3768 106.331 59.379 105.923 60.4369C105.514 61.4949 105.097 62.4878 104.67 63.4158C104.558 63.6571 104.438 63.8891 104.308 64.1118C104.197 64.316 104.076 64.5201 103.946 64.7243C104.596 65.0583 105.245 65.3367 105.895 65.5595C106.544 65.7822 107.203 65.8935 107.871 65.8935ZM96.8747 63.9726C96.4478 63.9726 96.0952 64.1118 95.8168 64.3902C95.5384 64.6686 95.3992 64.9934 95.3992 65.3646C95.3992 65.7358 95.557 66.042 95.8725 66.2833C96.2066 66.506 96.5963 66.6174 97.0418 66.6174C97.6542 66.6174 98.2203 66.4967 98.74 66.2555C99.2597 65.9956 99.7608 65.5873 100.243 65.0305C99.6123 64.715 99.0184 64.4644 98.4616 64.2788C97.9048 64.0747 97.3758 63.9726 96.8747 63.9726ZM122.285 62.8868C122.786 62.8868 123.259 62.7476 123.705 62.4693C124.15 62.1909 124.531 61.8568 124.846 61.467C125.18 61.0587 125.44 60.6411 125.626 60.2142C125.811 59.7874 125.904 59.4254 125.904 59.1285C125.904 58.7573 125.737 58.5717 125.403 58.5717C125.013 58.5717 124.633 58.7294 124.262 59.045C123.89 59.3605 123.556 59.741 123.259 60.1864C122.981 60.6318 122.749 61.1051 122.563 61.6062C122.378 62.1073 122.285 62.5342 122.285 62.8868ZM129.774 64.8913C129.366 65.5409 128.855 66.1163 128.243 66.6174C127.723 67.0442 127.073 67.434 126.294 67.7866C125.533 68.1393 124.624 68.3156 123.566 68.3156C122.86 68.3156 122.211 68.2135 121.617 68.0094C121.023 67.8052 120.513 67.5268 120.086 67.1742C119.659 66.803 119.325 66.3668 119.083 65.8657C118.842 65.3646 118.722 64.8171 118.722 64.2232C118.722 63.1652 118.916 62.2001 119.306 61.3278C119.696 60.4555 120.188 59.7131 120.782 59.1006C121.376 58.4696 122.016 57.9871 122.703 57.653C123.408 57.3189 124.067 57.1519 124.679 57.1519C125.106 57.1519 125.505 57.2354 125.876 57.4024C126.248 57.5695 126.572 57.7922 126.851 58.0706C127.129 58.3304 127.343 58.6366 127.491 58.9893C127.658 59.3419 127.742 59.7038 127.742 60.075C127.742 60.4091 127.667 60.8174 127.519 61.3C127.37 61.764 127.12 62.2094 126.767 62.6363C126.433 63.0632 125.969 63.4344 125.375 63.7499C124.8 64.0468 124.076 64.1953 123.204 64.1953C123 64.1953 122.786 64.1675 122.563 64.1118C122.433 64.0932 122.294 64.0654 122.146 64.0283C122.146 64.8635 122.387 65.5038 122.87 65.9492C123.352 66.3947 123.928 66.6174 124.596 66.6174C125.245 66.6174 125.839 66.4875 126.377 66.2276C126.916 65.9492 127.37 65.6523 127.742 65.3367C128.187 64.9655 128.568 64.5387 128.883 64.0561C128.902 64.0004 128.948 63.9355 129.022 63.8612C129.059 63.8241 129.115 63.787 129.189 63.7499C129.264 63.6942 129.347 63.6664 129.44 63.6664C129.588 63.6664 129.718 63.722 129.83 63.8334C129.959 63.9448 130.024 64.0747 130.024 64.2232C130.024 64.2974 130.006 64.3716 129.969 64.4459C129.95 64.5016 129.922 64.5665 129.885 64.6408C129.848 64.715 129.811 64.7985 129.774 64.8913ZM137.831 50.9158C137.831 50.6559 137.72 50.526 137.497 50.526C137.237 50.526 136.894 50.8137 136.467 51.389C136.059 51.9644 135.623 52.7161 135.159 53.6441C134.713 54.572 134.268 55.6114 133.822 56.7621C133.377 57.9128 133.015 59.0728 132.737 60.2421C133.052 59.9822 133.396 59.611 133.767 59.1285C134.156 58.6459 134.537 58.1077 134.908 57.5138C135.279 56.9013 135.641 56.2703 135.994 55.6207C136.347 54.9711 136.653 54.3493 136.913 53.7554C137.191 53.1429 137.414 52.5861 137.581 52.085C137.748 51.5839 137.831 51.1942 137.831 50.9158ZM132.959 68.3156C132.403 68.3156 131.864 68.2228 131.345 68.0372C130.844 67.8516 130.398 67.5825 130.008 67.2298C129.619 66.8587 129.303 66.4132 129.062 65.8935C128.839 65.3739 128.728 64.7892 128.728 64.1396C128.728 63.2116 128.83 62.1816 129.034 61.0494C129.257 59.9173 129.563 58.7851 129.953 57.653C130.342 56.5023 130.788 55.3887 131.289 54.3122C131.809 53.2357 132.375 52.2799 132.987 51.4447C133.6 50.591 134.231 49.9135 134.88 49.4124C135.548 48.9113 136.217 48.6607 136.885 48.6607C137.2 48.6607 137.497 48.735 137.776 48.8835C138.054 49.0319 138.295 49.2175 138.499 49.4402C138.722 49.663 138.899 49.9135 139.028 50.1919C139.158 50.4518 139.223 50.7023 139.223 50.9436C139.223 51.3334 139.112 51.8345 138.889 52.4469C138.685 53.0409 138.407 53.6905 138.054 54.3957C137.701 55.0824 137.284 55.797 136.801 56.5394C136.337 57.2818 135.845 58.0056 135.326 58.7109C134.825 59.3976 134.314 60.0472 133.795 60.6597C133.275 61.2536 132.783 61.7454 132.319 62.1352C132.282 62.3579 132.245 62.5899 132.208 62.8312C132.171 63.0353 132.143 63.2673 132.124 63.5272C132.106 63.7684 132.096 64.0097 132.096 64.251C132.096 64.9006 132.245 65.4295 132.542 65.8379C132.857 66.2462 133.303 66.4503 133.878 66.4503C134.249 66.4503 134.611 66.3297 134.964 66.0884C135.335 65.8471 135.66 65.5687 135.938 65.2532C136.272 64.9191 136.579 64.5201 136.857 64.0561C136.876 64.0004 136.922 63.9355 136.996 63.8612C137.033 63.8241 137.089 63.787 137.163 63.7499C137.237 63.6942 137.321 63.6664 137.414 63.6664C137.562 63.6664 137.692 63.722 137.803 63.8334C137.933 63.9448 137.998 64.0747 137.998 64.2232C137.998 64.2974 137.98 64.3716 137.943 64.4459C137.924 64.5016 137.896 64.5665 137.859 64.6408C137.822 64.715 137.785 64.7985 137.748 64.8913C137.339 65.5409 136.885 66.1163 136.384 66.6174C135.957 67.0442 135.446 67.434 134.852 67.7866C134.277 68.1393 133.646 68.3156 132.959 68.3156ZM144.043 52.0015C144.043 52.3727 143.978 52.7346 143.848 53.0873C143.737 53.4213 143.57 53.7276 143.347 54.006C143.143 54.2658 142.902 54.4792 142.623 54.6463C142.364 54.7948 142.085 54.869 141.788 54.869C141.38 54.869 141.027 54.7298 140.73 54.4514C140.433 54.173 140.285 53.7832 140.285 53.2821C140.285 52.9295 140.35 52.5861 140.48 52.2521C140.61 51.918 140.777 51.621 140.981 51.3612C141.204 51.0828 141.454 50.8694 141.733 50.7209C142.011 50.5538 142.308 50.4703 142.623 50.4703C143.032 50.4703 143.366 50.6095 143.626 50.8879C143.904 51.1663 144.043 51.5375 144.043 52.0015ZM140.034 65.3924C140.034 65.7079 140.109 65.9678 140.257 66.1719C140.424 66.3575 140.647 66.4503 140.925 66.4503C141.296 66.4503 141.658 66.3297 142.011 66.0884C142.382 65.8471 142.707 65.5687 142.985 65.2532C143.319 64.9191 143.626 64.5201 143.904 64.0561C143.923 64.0004 143.969 63.9355 144.043 63.8612C144.08 63.8241 144.136 63.787 144.21 63.7499C144.285 63.6942 144.368 63.6664 144.461 63.6664C144.609 63.6664 144.739 63.722 144.851 63.8334C144.981 63.9448 145.046 64.0747 145.046 64.2232C145.046 64.2974 145.027 64.3716 144.99 64.4459C144.971 64.5016 144.943 64.5665 144.906 64.6408C144.869 64.715 144.832 64.7985 144.795 64.8913C144.387 65.5409 143.932 66.1163 143.431 66.6174C143.004 67.0442 142.494 67.434 141.9 67.7866C141.324 68.1393 140.693 68.3156 140.007 68.3156C138.949 68.3156 138.095 68.0372 137.445 67.4804C136.796 66.9051 136.471 66.1627 136.471 65.2532C136.471 64.7521 136.554 64.1489 136.721 63.4436C136.888 62.7384 137.083 62.0238 137.306 61.3C137.529 60.5761 137.761 59.8894 138.002 59.2398C138.262 58.5902 138.475 58.0706 138.642 57.6808C138.717 57.5323 138.819 57.4117 138.949 57.3189C139.079 57.2075 139.227 57.1519 139.394 57.1519C139.598 57.1519 139.83 57.2168 140.09 57.3467C140.35 57.4767 140.591 57.6251 140.814 57.7922C141.037 57.9592 141.222 58.1355 141.371 58.3211C141.519 58.4882 141.593 58.6274 141.593 58.7387C141.593 59.1656 141.51 59.6296 141.343 60.1307C141.176 60.6133 140.99 61.1329 140.786 61.6897C140.6 62.2465 140.424 62.8404 140.257 63.4715C140.109 64.084 140.034 64.7243 140.034 65.3924ZM156.374 64.8913C156.059 65.3553 155.66 65.7543 155.177 66.0884C154.769 66.4039 154.259 66.6823 153.646 66.9236C153.052 67.1649 152.347 67.2855 151.53 67.2855C151.14 67.2855 150.676 67.2298 150.138 67.1185C149.619 67.0071 149.145 66.8587 148.718 66.6731C147.716 67.3041 146.918 67.7402 146.324 67.9815C145.73 68.2042 145.257 68.3156 144.904 68.3156C144.756 68.3156 144.598 68.2599 144.431 68.1486C144.264 68.0372 144.106 67.8887 143.958 67.7031C143.828 67.5175 143.726 67.3134 143.652 67.0906C143.559 66.8494 143.512 66.6081 143.512 66.3668C143.512 65.5873 143.596 64.7707 143.763 63.9169C143.93 63.0632 144.125 62.2373 144.348 61.4392C144.57 60.6411 144.802 59.9173 145.044 59.2677C145.303 58.5995 145.517 58.0706 145.684 57.6808C145.758 57.5323 145.86 57.4117 145.99 57.3189C146.12 57.2075 146.269 57.1519 146.436 57.1519C146.64 57.1519 146.872 57.2354 147.132 57.4024C147.391 57.5509 147.633 57.7272 147.855 57.9314C148.078 58.1355 148.264 58.3397 148.412 58.5438C148.561 58.748 148.635 58.9058 148.635 59.0171C148.635 59.444 148.542 59.9266 148.357 60.4648C148.171 60.9845 147.957 61.5227 147.716 62.0795C147.493 62.6363 147.289 63.1931 147.104 63.7499C146.918 64.2881 146.825 64.78 146.825 65.2254C146.825 65.4295 146.862 65.6059 146.937 65.7543C147.029 65.9028 147.15 65.9771 147.299 65.9771C147.41 65.9771 147.54 65.9307 147.688 65.8379V65.6987C147.688 65.5502 147.735 65.3924 147.828 65.2254C147.939 65.0583 148.069 64.9099 148.217 64.78C148.366 64.65 148.514 64.548 148.663 64.4737C148.83 64.3809 148.969 64.3345 149.08 64.3345H149.108C149.405 63.9262 149.693 63.4715 149.971 62.9704C150.268 62.4507 150.528 61.9032 150.751 61.3278C150.992 60.7525 151.178 60.1586 151.308 59.5461C151.456 58.9336 151.53 58.3211 151.53 57.7087C151.53 57.3375 151.725 57.1519 152.115 57.1519C152.338 57.1519 152.579 57.2075 152.839 57.3189C153.099 57.4303 153.34 57.588 153.563 57.7922C153.785 57.9963 153.971 58.2376 154.119 58.516C154.268 58.7944 154.342 59.0914 154.342 59.4069C154.342 59.7595 154.24 60.1864 154.036 60.6875C153.85 61.1701 153.581 61.6805 153.228 62.2187C152.894 62.7384 152.495 63.2673 152.031 63.8056C151.567 64.3438 151.076 64.8449 150.556 65.3089C150.76 65.4759 150.983 65.6244 151.224 65.7543C151.484 65.8843 151.809 65.9492 152.198 65.9492C152.681 65.9492 153.117 65.8564 153.507 65.6708C153.897 65.4667 154.24 65.2439 154.537 65.0027C154.871 64.7243 155.187 64.4088 155.483 64.0561C155.502 64.0004 155.548 63.9355 155.623 63.8612C155.66 63.8241 155.715 63.787 155.79 63.7499C155.864 63.6942 155.947 63.6664 156.04 63.6664C156.189 63.6664 156.319 63.722 156.43 63.8334C156.56 63.9448 156.625 64.0747 156.625 64.2232C156.625 64.2974 156.606 64.3716 156.569 64.4459C156.551 64.5016 156.523 64.5665 156.486 64.6408C156.449 64.715 156.411 64.7985 156.374 64.8913ZM158.825 62.8868C159.326 62.8868 159.799 62.7476 160.244 62.4693C160.69 62.1909 161.07 61.8568 161.386 61.467C161.72 61.0587 161.98 60.6411 162.165 60.2142C162.351 59.7874 162.444 59.4254 162.444 59.1285C162.444 58.7573 162.277 58.5717 161.943 58.5717C161.553 58.5717 161.172 58.7294 160.801 59.045C160.43 59.3605 160.096 59.741 159.799 60.1864C159.521 60.6318 159.289 61.1051 159.103 61.6062C158.917 62.1073 158.825 62.5342 158.825 62.8868ZM166.314 64.8913C165.905 65.5409 165.395 66.1163 164.782 66.6174C164.263 67.0442 163.613 67.434 162.834 67.7866C162.073 68.1393 161.163 68.3156 160.105 68.3156C159.4 68.3156 158.75 68.2135 158.157 68.0094C157.563 67.8052 157.052 67.5268 156.625 67.1742C156.198 66.803 155.864 66.3668 155.623 65.8657C155.382 65.3646 155.261 64.8171 155.261 64.2232C155.261 63.1652 155.456 62.2001 155.846 61.3278C156.236 60.4555 156.727 59.7131 157.321 59.1006C157.915 58.4696 158.556 57.9871 159.242 57.653C159.948 57.3189 160.606 57.1519 161.219 57.1519C161.646 57.1519 162.045 57.2354 162.416 57.4024C162.787 57.5695 163.112 57.7922 163.39 58.0706C163.669 58.3304 163.882 58.6366 164.031 58.9893C164.198 59.3419 164.281 59.7038 164.281 60.075C164.281 60.4091 164.207 60.8174 164.059 61.3C163.91 61.764 163.66 62.2094 163.307 62.6363C162.973 63.0632 162.509 63.4344 161.915 63.7499C161.34 64.0468 160.616 64.1953 159.743 64.1953C159.539 64.1953 159.326 64.1675 159.103 64.1118C158.973 64.0932 158.834 64.0654 158.685 64.0283C158.685 64.8635 158.927 65.5038 159.409 65.9492C159.892 66.3947 160.467 66.6174 161.135 66.6174C161.785 66.6174 162.379 66.4875 162.917 66.2276C163.455 65.9492 163.91 65.6523 164.281 65.3367C164.727 64.9655 165.107 64.5387 165.423 64.0561C165.441 64.0004 165.488 63.9355 165.562 63.8612C165.599 63.8241 165.655 63.787 165.729 63.7499C165.803 63.6942 165.887 63.6664 165.979 63.6664C166.128 63.6664 166.258 63.722 166.369 63.8334C166.499 63.9448 166.564 64.0747 166.564 64.2232C166.564 64.2974 166.546 64.3716 166.508 64.4459C166.49 64.5016 166.462 64.5665 166.425 64.6408C166.388 64.715 166.351 64.7985 166.314 64.8913ZM172.478 65.4759C172.478 65.7915 172.561 66.0327 172.728 66.1998C172.896 66.3668 173.118 66.4503 173.397 66.4503C173.768 66.4503 174.13 66.3297 174.482 66.0884C174.854 65.8471 175.178 65.5687 175.457 65.2532C175.791 64.9191 176.097 64.5201 176.375 64.0561C176.394 64.0004 176.44 63.9355 176.515 63.8612C176.552 63.8241 176.607 63.787 176.682 63.7499C176.756 63.6942 176.839 63.6664 176.932 63.6664C177.081 63.6664 177.211 63.722 177.322 63.8334C177.452 63.9448 177.517 64.0747 177.517 64.2232C177.517 64.2974 177.498 64.3716 177.461 64.4459C177.443 64.5016 177.415 64.5665 177.378 64.6408C177.341 64.715 177.303 64.7985 177.266 64.8913C176.858 65.5409 176.403 66.1163 175.902 66.6174C175.475 67.0442 174.965 67.434 174.371 67.7866C173.796 68.1393 173.165 68.3156 172.478 68.3156C171.94 68.3156 171.457 68.2414 171.03 68.0929C170.603 67.9444 170.232 67.7495 169.917 67.5082C169.601 67.2484 169.36 66.9515 169.193 66.6174C169.026 66.2833 168.942 65.9214 168.942 65.5316C168.942 64.9191 169.035 64.3438 169.221 63.8056C169.406 63.2673 169.601 62.7755 169.805 62.3301C170.028 61.8846 170.232 61.4949 170.418 61.1608C170.603 60.8081 170.696 60.5205 170.696 60.2978C170.696 60.1493 170.603 60.0379 170.418 59.9637C170.251 59.8894 170.065 59.8245 169.861 59.7688C169.62 59.7131 169.341 59.6667 169.026 59.6296C168.488 60.9845 167.977 62.0981 167.495 62.9704C167.012 63.8241 166.622 64.4644 166.325 64.8913C166.288 64.947 166.214 65.0305 166.103 65.1419C166.01 65.2532 165.88 65.3089 165.713 65.3089C165.564 65.3089 165.434 65.2532 165.323 65.1419C165.193 65.0119 165.128 64.8727 165.128 64.7243C165.128 64.5944 165.175 64.4737 165.267 64.3624C165.342 64.2324 165.397 64.1304 165.434 64.0561C165.694 63.6849 166.056 63.1003 166.52 62.3022C167.003 61.4856 167.448 60.4184 167.857 59.1006C167.671 58.9707 167.513 58.8037 167.383 58.5995C167.272 58.4325 167.17 58.219 167.077 57.9592C166.984 57.6994 166.938 57.3931 166.938 57.0405C166.938 56.7621 166.984 56.5023 167.077 56.261C167.188 56.0011 167.328 55.7784 167.495 55.5928C167.662 55.4072 167.838 55.2588 168.024 55.1474C168.209 55.036 168.385 54.9804 168.553 54.9804C168.738 54.9804 168.933 55.036 169.137 55.1474C169.341 55.2402 169.527 55.3608 169.694 55.5093C169.861 55.6392 170 55.797 170.112 55.9826C170.223 56.1496 170.279 56.2981 170.279 56.428C170.279 56.7992 170.214 57.1055 170.084 57.3467C169.972 57.588 169.917 57.82 169.917 58.0427C169.917 58.2469 170.028 58.3954 170.251 58.4882C170.473 58.581 170.752 58.6274 171.086 58.6274C171.401 58.6274 171.661 58.6088 171.865 58.5717C172.088 58.5346 172.283 58.4974 172.45 58.4603C172.617 58.4046 172.775 58.3582 172.923 58.3211C173.072 58.284 173.23 58.2654 173.397 58.2654C173.731 58.2654 174 58.3954 174.204 58.6552C174.427 58.915 174.538 59.2306 174.538 59.6018C174.538 59.9173 174.427 60.2978 174.204 60.7432C174 61.1701 173.768 61.6433 173.508 62.163C173.248 62.6827 173.007 63.2302 172.784 63.8056C172.58 64.3624 172.478 64.9191 172.478 65.4759ZM185.662 67.3134C186.553 66.7937 187.286 66.2647 187.862 65.7265C188.437 65.1697 188.929 64.6129 189.337 64.0561C189.374 64.0004 189.43 63.9355 189.504 63.8612C189.56 63.8241 189.625 63.787 189.699 63.7499C189.773 63.6942 189.857 63.6664 189.95 63.6664C190.117 63.6664 190.256 63.722 190.367 63.8334C190.478 63.9448 190.534 64.0747 190.534 64.2232C190.534 64.2974 190.516 64.3716 190.478 64.4459C190.441 64.5016 190.404 64.5665 190.367 64.6408C190.311 64.715 190.265 64.7985 190.228 64.8913C189.745 65.5409 189.114 66.2091 188.335 66.8958C187.555 67.5639 186.525 68.2321 185.245 68.9002C185.003 69.7354 184.725 70.5706 184.409 71.4058C184.112 72.2596 183.741 73.0205 183.296 73.6887C182.85 74.3568 182.312 74.9043 181.681 75.3312C181.069 75.7581 180.345 75.9715 179.51 75.9715C179.083 75.9715 178.674 75.8973 178.285 75.7488C177.913 75.6189 177.579 75.4333 177.282 75.192C177.004 74.9693 176.781 74.6909 176.614 74.3568C176.447 74.0413 176.364 73.698 176.364 73.3268C176.364 72.8628 176.503 72.4266 176.781 72.0183C177.078 71.6285 177.487 71.2573 178.006 70.9047C178.526 70.5521 179.138 70.2087 179.844 69.8746C180.568 69.5591 181.347 69.2343 182.182 68.9002C182.331 68.3806 182.451 67.8887 182.544 67.4247C182.637 66.9607 182.72 66.5617 182.795 66.2276C182.572 66.4875 182.312 66.7473 182.015 67.0071C181.737 67.2484 181.431 67.4711 181.096 67.6753C180.762 67.8609 180.41 68.0094 180.039 68.1207C179.686 68.2506 179.333 68.3156 178.981 68.3156C178.665 68.3156 178.331 68.2414 177.978 68.0929C177.644 67.963 177.338 67.7774 177.06 67.5361C176.781 67.2948 176.549 67.0071 176.364 66.6731C176.178 66.339 176.085 65.9863 176.085 65.6151C176.085 65.114 176.169 64.4923 176.336 63.7499C176.503 63.0075 176.698 62.2558 176.921 61.4949C177.143 60.7153 177.375 59.9822 177.617 59.2955C177.876 58.6088 178.09 58.0706 178.257 57.6808C178.331 57.5323 178.433 57.4117 178.563 57.3189C178.693 57.2075 178.841 57.1519 179.009 57.1519C179.213 57.1519 179.445 57.2168 179.704 57.3467C179.964 57.4767 180.206 57.6251 180.428 57.7922C180.651 57.9592 180.837 58.1355 180.985 58.3211C181.134 58.4882 181.208 58.6274 181.208 58.7387C181.208 59.1099 181.115 59.5646 180.929 60.1029C180.744 60.6411 180.53 61.2257 180.289 61.8568C180.066 62.4878 179.862 63.1374 179.677 63.8056C179.491 64.4737 179.398 65.114 179.398 65.7265C179.398 65.9492 179.454 66.1441 179.565 66.3111C179.677 66.4782 179.834 66.5617 180.039 66.5617C180.261 66.5617 180.493 66.506 180.735 66.3947C180.976 66.2647 181.208 66.107 181.431 65.9214C181.653 65.7172 181.857 65.5038 182.043 65.2811C182.229 65.0398 182.377 64.8078 182.488 64.5851C182.748 64.1025 182.99 63.5643 183.212 62.9704C183.435 62.3579 183.639 61.7454 183.825 61.1329C184.029 60.5019 184.205 59.8894 184.354 59.2955C184.521 58.7016 184.679 58.1634 184.827 57.6808C184.864 57.5138 184.957 57.3839 185.105 57.2911C185.254 57.1983 185.421 57.1519 185.607 57.1519C185.811 57.1519 186.033 57.2168 186.275 57.3467C186.535 57.4767 186.776 57.6251 186.999 57.7922C187.221 57.9592 187.407 58.1355 187.555 58.3211C187.704 58.4882 187.778 58.6274 187.778 58.7387C187.778 58.9429 187.722 59.3048 187.611 59.8245C187.5 60.3441 187.36 60.9566 187.193 61.6619C187.026 62.3486 186.831 63.0817 186.609 63.8612C186.405 64.6408 186.2 65.3739 185.996 66.0606L185.662 67.3134ZM178.814 74.496C179.111 74.496 179.398 74.3847 179.677 74.1619C179.955 73.9578 180.215 73.6794 180.456 73.3268C180.697 72.9741 180.92 72.5565 181.124 72.074C181.328 71.61 181.514 71.1274 181.681 70.6263C181.18 70.9047 180.725 71.1924 180.317 71.4893C179.909 71.8048 179.556 72.1111 179.259 72.408C178.962 72.705 178.73 72.9834 178.563 73.2432C178.396 73.5216 178.313 73.7536 178.313 73.9392C178.313 74.3104 178.48 74.496 178.814 74.496Z" fill="#363636"/>
</svg>
