<svg width="257" height="250" viewBox="0 0 257 250" fill="none" xmlns="http://www.w3.org/2000/svg">
<path d="M160.43 37.73C160.43 37.73 175.06 40.89 174.06 60.51C173.6 69.64 163.18 83.59 141.3 90.27C130.15 93.68 119.86 93.18 101.23 90.94C101.23 90.94 110.49 107.12 162.69 92.49C162.69 92.49 185.03 106.57 201.99 91.6C218.95 76.63 189.92 34.06 160.43 37.73Z" fill="#DCAD95"/>
<path d="M150.23 89.93C150.9 89.93 174.29 79.63 180.5 58.12C180.5 58.12 189.04 79.51 169.64 95.12C169.64 95.12 167.42 95.12 162.27 92.35C159.63 91 150.23 89.93 150.23 89.93Z" fill="#EEDCD5"/>
<path d="M88 63.23C88 63.23 68.2701 61.84 69.2701 79.64C70.2701 96.64 94.12 95.58 94.12 95.58C94.12 95.58 68.94 100.03 63.17 95.58C57.4 91.13 47.9601 75.34 57.41 61.44C66.8601 47.54 81.84 44.16 88 63.23Z" fill="#DCAD95"/>
<path d="M87.61 60.18C87.61 60.18 75.31 52.7 63.83 63.84C54.21 73.18 60.17 88.61 60.17 88.61L53 68.78C53 68.78 65.7 37.52 81.42 49.04C83.89 50.82 84.9 56.29 87.61 60.18Z" fill="#EEDCD5"/>
<path d="M92.36 65.09C92.36 65.09 84.14 43.34 96.47 31.74C109.55 19.44 135.47 18.88 143.03 38.83L170.52 37.06C170.52 37.06 162.98 14.45 141.26 8.24C119.54 2.03 94.81 11.5 86.26 26.86C75.19 46.82 92.36 65.09 92.36 65.09Z" fill="#DCAD95"/>
<path opacity="0.8" d="M88.94 32.19C97.47 16.83 122.19 7.36 143.94 13.57C157.6 17.47 165.65 27.86 169.74 35.03C167.31 29.34 159.03 13.32 141.28 8.24999C119.55 2.03999 94.83 11.51 86.28 26.87C79.18 39.66 83.68 51.75 87.83 58.79C84.92 51.72 83.39 42.16 88.94 32.19Z" fill="#EEDCD5"/>
<path d="M8.55004 204.81C10.7678 205.903 13.1221 206.693 15.55 207.16C17.8987 207.608 20.2916 207.779 22.68 207.67C18.8296 203.786 15.4711 199.443 12.68 194.74C11.1263 193.841 9.78295 192.621 8.74004 191.16C7.31744 188.996 6.61726 186.437 6.74004 183.85C6.74929 183.158 6.79602 182.467 6.88004 181.78C5.14054 176.401 4.08885 170.823 3.75004 165.18C1.03004 177.82 0.660039 189.88 2.83004 200.79C4.52001 202.415 6.4491 203.77 8.55004 204.81Z" fill="#DCAD95"/>
<path d="M40.9101 221.28C40.1601 221.61 39.4201 221.91 38.6901 222.18C35.7926 223.264 32.804 224.088 29.7601 224.64C26.9039 225.172 24.0053 225.443 21.1001 225.45H20.4501C18.0067 225.418 15.5734 225.129 13.1901 224.59C13.8001 225.41 14.4301 226.23 15.1001 227.02C41.8101 259.02 111.56 257.43 155.89 222.63C118.86 243.24 70.3101 245.9 40.9101 221.28Z" fill="#DCAD95"/>
<path d="M83.71 74.83C84.96 82.32 89.71 88.91 95.59 93.5C101.856 98.3324 109.204 101.566 117 102.92C124.952 104.308 133.095 104.183 141 102.55C144.624 101.824 148.168 100.742 151.58 99.32C155.356 97.8665 158.926 95.9268 162.2 93.55C169.04 88.32 175.56 81.97 179.74 74.37C180.96 72.16 177.86 69.48 176.1 71.56C173.812 74.2993 171.329 76.8693 168.67 79.25C168.003 79.81 167.36 80.3567 166.74 80.89C166.66 80.96 165.74 81.71 166.17 81.35C165.76 81.67 165.34 81.98 164.92 82.29C163.51 83.2905 162.034 84.1926 160.5 84.99C157.33 86.68 154.08 88.22 150.8 89.68L150.22 89.94C150.06 90.01 149.41 90.27 150.04 90.02L149.86 90.09L149.27 90.33C148.437 90.6567 147.597 90.97 146.75 91.27C145.06 91.86 143.34 92.38 141.61 92.87C139.88 93.36 138.14 93.77 136.38 94.11C135.553 94.27 134.723 94.41 133.89 94.53C133.686 94.5781 133.479 94.6082 133.27 94.62C134.2 94.68 133.9 94.54 133.54 94.62L131.97 94.79C128.46 95.1374 124.926 95.1708 121.41 94.89C120.57 94.82 119.74 94.75 118.9 94.65L118.27 94.58C117.66 94.51 119.08 94.7 118.47 94.58L116.9 94.34C115.172 94.0493 113.46 93.6722 111.77 93.21C110.02 92.73 108.31 92.13 106.6 91.48L104.22 90.57C104.94 90.86 103.85 90.41 103.64 90.31C103.153 90.09 102.67 89.86 102.19 89.62C100.39 88.729 98.6463 87.727 96.97 86.62C95.4186 85.6196 93.9655 84.4745 92.63 83.2C91.2014 81.944 89.8646 80.5872 88.63 79.14C87.4134 77.5639 86.3265 75.8918 85.38 74.14C84.84 73.14 83.54 73.87 83.71 74.85V74.83Z" fill="#363636"/>
<path d="M165.31 95.35C167.31 98.61 170.36 100.49 173.88 101.83C175.633 102.523 177.474 102.967 179.35 103.15C181.06 103.295 182.78 103.295 184.49 103.15C191.4 102.63 198.06 100.36 203.04 95.38C205.4 92.9244 207.249 90.0246 208.48 86.8489C209.711 83.6732 210.299 80.2847 210.21 76.88C210.21 70.18 207.86 63.42 204.72 57.56C201.276 51.1255 196.26 45.6664 190.14 41.69C182.88 36.94 174.35 34.4 165.79 33.35C157.23 32.3 147.66 33.26 139.93 37.35C131.93 41.61 126.32 50.71 128.01 59.89C129.82 69.76 141.59 76.22 150.91 72.66C154.734 71.2568 157.956 68.5756 160.03 65.07C162.007 61.8041 162.834 57.9705 162.38 54.18C162.037 52.4108 161.38 50.7174 160.44 49.18C160.171 48.8275 159.793 48.5742 159.365 48.4599C158.937 48.3455 158.483 48.3766 158.074 48.5483C157.666 48.7199 157.326 49.0225 157.108 49.4083C156.89 49.7941 156.806 50.2414 156.87 50.68C157.207 52.0462 157.207 53.4738 156.87 54.84C156.94 54.38 156.77 55.28 156.74 55.45C156.66 55.81 156.58 56.17 156.48 56.53C156.38 56.89 156.25 57.24 156.13 57.6C156.13 57.6 155.94 58.08 156.13 57.74C156.32 57.4 155.98 58.05 155.95 58.12C155.623 58.7963 155.242 59.4451 154.81 60.06L154.48 60.52C154.56 60.42 154.94 59.98 154.48 60.46C154.23 60.74 153.99 61.02 153.73 61.29C153.225 61.8518 152.658 62.355 152.04 62.79C152.13 62.73 152.75 62.3 152.17 62.68L151.71 62.99C151.397 63.19 151.063 63.38 150.71 63.56L150.21 63.81C149.49 64.19 150.44 63.73 150.44 63.73C150.44 63.73 149.55 64.05 149.39 64.1C149.03 64.21 148.66 64.29 148.3 64.38C148.11 64.38 147.44 64.5 148.36 64.38L147.62 64.44C146.622 64.5849 145.605 64.5476 144.62 64.33C144.73 64.33 145.62 64.54 144.74 64.33L144.01 64.16C143.52 64.04 143.01 63.88 142.57 63.71C141.62 63.38 142.57 63.76 142.66 63.71C142.423 63.6252 142.198 63.511 141.99 63.37C141.617 63.17 141.253 62.9533 140.9 62.72C140.737 62.5827 140.563 62.459 140.38 62.35C140.5 62.4 141.2 63.07 140.61 62.51C140.3 62.22 139.98 61.95 139.69 61.64L139.26 61.17C138.7 60.59 139.36 61.3 139.43 61.42C139.23 61.06 138.94 60.74 138.72 60.42C138.5 60.1 138.3 59.69 138.12 59.32C138.044 59.1269 137.954 58.9397 137.85 58.76C138.1 59.1 138.2 59.66 137.94 58.92C137.82 58.58 137.72 58.23 137.63 57.92C137.63 57.72 137.55 57.51 137.5 57.31C137.29 56.45 137.6 57.62 137.5 57.69C137.61 57.55 137.44 56.69 137.44 56.43C137.44 56.17 137.44 56.01 137.44 55.79C137.44 54.87 137.29 56.6 137.44 55.97C137.722 54.2697 138.151 52.5968 138.72 50.97L138.89 50.53C139.18 49.75 138.89 50.7 138.78 50.78C139.001 50.4192 139.185 50.0373 139.33 49.64C139.748 48.8522 140.219 48.0937 140.74 47.37C141.37 46.49 140.41 47.72 140.93 47.13C141.21 46.81 141.49 46.49 141.78 46.13C142.406 45.458 143.074 44.8267 143.78 44.24C143.87 44.16 144.41 43.74 144.02 44.04C143.63 44.34 144.1 43.99 144.15 43.95C144.54 43.68 144.93 43.4 145.33 43.14C146.178 42.5951 147.057 42.0977 147.96 41.65C148.33 41.47 148.7 41.27 149.08 41.12C148.63 41.3 149.2 41.12 149.25 41.12L150 41C150.967 40.6867 151.95 40.4167 152.95 40.19C154.66 39.7734 156.41 39.5454 158.17 39.51C160.078 39.447 161.989 39.5038 163.89 39.68C165.601 39.8292 167.3 40.083 168.98 40.44C170.835 40.8148 172.665 41.3024 174.46 41.9C177.88 43.0116 181.148 44.5434 184.19 46.46C184.99 46.9533 185.77 47.4733 186.53 48.02L187.53 48.75C187.08 48.41 187.53 48.75 187.63 48.83L188.31 49.38C189.689 50.5206 190.988 51.7534 192.2 53.07C192.65 53.56 193.09 54.07 193.51 54.56L194.07 55.24C194.183 55.3659 194.286 55.4995 194.38 55.64C193.9 54.8 194.25 55.48 194.38 55.64C195.207 56.76 195.977 57.9167 196.69 59.11C197.403 60.3033 198.07 61.5567 198.69 62.87L199.08 63.72L199.3 64.21C199.52 64.7 199.03 63.52 199.22 64.02C199.49 64.73 199.78 65.43 200.03 66.15C200.483 67.5013 200.86 68.8768 201.16 70.27C201.3 70.9367 201.423 71.6033 201.53 72.27C201.53 72.44 201.58 72.62 201.61 72.79C201.71 73.34 201.52 71.92 201.61 72.48C201.61 72.87 201.7 73.26 201.73 73.65C201.859 75.0194 201.912 76.3948 201.89 77.77C201.89 78.4367 201.853 79.07 201.78 79.67C201.78 79.82 201.63 81.02 201.72 80.24C201.81 79.46 201.72 80.04 201.72 80.18C201.72 80.32 201.64 80.67 201.59 80.92C201.336 82.221 200.975 83.4987 200.51 84.74L200.33 85.2C200.18 85.59 200.05 85.38 200.46 84.89C200.31 85.1399 200.186 85.4047 200.09 85.68C199.79 86.3139 199.456 86.9315 199.09 87.53C198.91 87.8167 198.72 88.0967 198.52 88.37C198.407 88.4969 198.307 88.6341 198.22 88.78C198.22 88.78 198.75 88.13 198.47 88.45C197.98 89.01 197.47 89.58 196.98 90.1C196.49 90.62 195.98 91.02 195.48 91.46C194.72 92.1 196.02 91.1 195.19 91.68C194.84 91.93 194.48 92.18 194.12 92.41C193.76 92.64 193.22 92.95 192.76 93.2L191.96 93.6L191.54 93.79C190.97 94.06 191.43 93.79 191.73 93.72C191.42 93.8231 191.116 93.9433 190.82 94.08L190.35 94.28C189.683 94.5467 189.683 94.5467 190.35 94.28C190.35 94.28 189.84 94.47 189.87 94.46C189.203 94.7 188.537 94.92 187.87 95.12C186.461 95.5381 185.029 95.872 183.58 96.12C182.91 96.23 183.58 96.12 183.71 96.12L183.14 96.19L182 96.29C181.233 96.3433 180.467 96.37 179.7 96.37C178.19 96.37 176.64 96.37 175.14 96.25C174.56 96.2 174.95 96.25 175.07 96.25L174.5 96.16C174.127 96.0933 173.753 96.0167 173.38 95.93C172.644 95.7607 171.92 95.5469 171.21 95.29C169.843 94.8214 168.507 94.267 167.21 93.63C166.05 93.03 164.6 94.28 165.35 95.5L165.31 95.35Z" fill="#363636"/>
<path d="M94 95.09C92.5959 94.9837 91.184 95.061 89.8 95.32C88.24 95.47 86.72 95.68 85.15 95.68C82.07 95.6777 79.0026 95.288 76.02 94.52C73.1917 93.8687 70.5159 92.6768 68.14 91.01C67.56 90.62 67 90.19 66.44 89.78C67 90.19 66.44 89.78 66.24 89.61C66.04 89.44 65.59 89.06 65.24 88.77C64.2134 87.8362 63.2512 86.8339 62.36 85.77C61.84 85.15 62.71 86.27 62.23 85.61L61.67 84.83C61.2433 84.21 60.8433 83.5767 60.47 82.93C60.0967 82.2833 59.7633 81.6667 59.47 81.08C59.4 80.93 58.97 80.01 59.24 80.59C59.51 81.17 59.06 80.12 58.99 79.94C58.5113 78.6393 58.14 77.3014 57.88 75.94C57.81 75.57 57.75 75.2 57.69 74.83C57.69 74.65 57.51 73.59 57.62 74.35C57.73 75.11 57.62 74.05 57.62 73.86C57.5867 73.44 57.5633 73.0167 57.55 72.59C57.55 71.9233 57.55 71.2867 57.55 70.68C57.55 70.31 57.61 69.94 57.64 69.57C57.71 68.75 57.48 70.57 57.64 69.41C57.862 68.0513 58.1965 66.7133 58.64 65.41C58.74 65.11 58.8467 64.81 58.96 64.51C59.39 63.39 58.67 65.1 59.03 64.32C59.39 63.54 59.62 63.08 59.95 62.47C60.28 61.86 60.64 61.28 61.02 60.7C61.2 60.44 61.38 60.18 61.56 59.92C61.63 59.81 61.98 59.38 61.56 59.92L61.78 59.66C62.772 58.4949 63.8628 57.4176 65.04 56.44C65.43 56.1 64.71 56.69 64.71 56.7C64.8917 56.5936 65.0625 56.4697 65.22 56.33C65.5667 56.09 65.92 55.8567 66.28 55.63C67.0006 55.1891 67.745 54.7885 68.51 54.43L69.03 54.2C69.55 53.95 68.27 54.48 69.12 54.2C69.54 54.05 69.95 53.89 70.37 53.75C71.27 53.45 72.19 53.19 73.11 52.97C74.03 52.75 74.85 52.59 75.72 52.44C76.22 52.35 76.72 52.27 77.23 52.21C77.23 52.21 76.37 52.31 76.92 52.21L77.86 52.1C80.3 51.84 82.68 50.1 82.56 47.4C82.46 45.07 80.48 42.4 77.86 42.7C70.02 43.52 62.33 45.6 56.57 51.29C51.621 56.3234 48.6316 62.9583 48.14 70C47.02 84.09 58.06 97.38 71.56 100.38C75.6381 101.344 79.8784 101.399 83.98 100.54C85.9375 100.103 87.8544 99.5012 89.71 98.74C91.4797 98.1518 93.0352 97.0522 94.18 95.58C94.2047 95.537 94.2194 95.4889 94.2229 95.4395C94.2265 95.39 94.2189 95.3403 94.2006 95.2942C94.1824 95.2481 94.154 95.2067 94.1175 95.173C94.081 95.1394 94.0374 95.1145 93.99 95.1L94 95.09Z" fill="#363636"/>
<path d="M169.34 31.18C169.17 30.045 168.889 28.9296 168.5 27.85C167.99 26.7 167.5 25.57 166.84 24.47C165.593 22.3078 164.172 20.251 162.59 18.32C159.549 14.4723 155.889 11.1571 151.76 8.50999C143.228 3.17415 133.309 0.477973 123.25 0.759995C102.88 1.37999 81.73 15.55 78.37 36.61C77.45 42.39 77.46 48.61 79.44 54.16C80.3944 56.842 81.6847 59.3923 83.28 61.75C85.0377 64.1404 87.2885 66.1252 89.88 67.57C90.2263 67.7658 90.6272 67.8427 91.0214 67.7889C91.4156 67.7352 91.7813 67.5538 92.0626 67.2726C92.3439 66.9913 92.5253 66.6255 92.579 66.2314C92.6327 65.8372 92.5558 65.4363 92.36 65.09C91.8487 64.2297 91.4137 63.3262 91.06 62.39C90.83 61.76 90.56 61.16 90.28 60.56L90 60C89.84 59.64 89.84 59.6167 90 59.93C89.8534 59.5633 89.7 59.2 89.54 58.84C89.33 58.36 89.09 57.89 88.87 57.42C88.87 57.42 88.48 56.49 88.67 56.98C88.86 57.47 88.49 56.52 88.5 56.54C88.1342 55.4565 87.8239 54.3551 87.57 53.24C87.28 52.17 87.07 51.09 86.86 50.01C86.75 49.44 86.63 48.88 86.53 48.31C86.53 48.1 86.46 47.89 86.43 47.69C86.3633 47.2167 86.3633 47.2733 86.43 47.86C86.43 47.6533 86.4067 47.4433 86.36 47.23C86.1171 45.0219 86.0669 42.7968 86.21 40.58C86.2434 40.0533 86.29 39.5267 86.35 39V38.68C86.41 38.2067 86.41 38.26 86.35 38.84C86.35 38.84 86.43 38.29 86.45 38.21C86.6485 37.0074 86.9089 35.8158 87.23 34.64C87.5234 33.5667 87.8567 32.51 88.23 31.47C88.32 31.22 88.43 30.98 88.52 30.73C88.74 30.12 88.11 31.62 88.52 30.73C88.79 30.15 89.05 29.56 89.35 28.99C89.8367 28.03 90.3667 27.0933 90.94 26.18C91.2534 25.68 91.5867 25.1867 91.94 24.7L92.4 24.04C92.46 23.95 93.18 23.04 92.86 23.41C92.54 23.78 93.15 23.06 93.15 23.06L93.77 22.32C94.1234 21.9133 94.48 21.5133 94.84 21.12C95.6467 20.2533 96.49 19.4233 97.37 18.63C97.77 18.27 98.1767 17.9167 98.59 17.57L99.34 16.96C99.46 16.86 99.92 16.52 99.34 16.96C100.34 16.24 101.26 15.57 102.28 14.96C103.3 14.35 104.28 13.74 105.39 13.2C105.87 12.9533 106.357 12.7133 106.85 12.48L107.44 12.21C107.59 12.14 108.87 11.61 108.01 11.95C110.12 11.0873 112.289 10.3755 114.5 9.82001C115.607 9.54667 116.72 9.31333 117.84 9.12L118.64 8.99001C119.72 8.81001 117.8 9.07001 118.86 8.99001C119.48 8.92001 120.11 8.85 120.73 8.8C122.917 8.64439 125.113 8.64439 127.3 8.8C128.3 8.87 129.38 8.98001 130.42 9.10001C131.46 9.22001 129.57 8.96001 130.62 9.10001L131.39 9.22C132.01 9.32 132.627 9.43 133.24 9.55C135.447 9.99194 137.621 10.5799 139.75 11.31C140.75 11.65 141.75 12.02 142.69 12.42C141.83 12.08 142.81 12.47 142.94 12.53L143.66 12.85C144.233 13.11 144.8 13.3833 145.36 13.67C147.62 14.8 149.8 15.99 151.94 17.33C153 17.99 154.07 18.62 155.1 19.33C156.13 20.04 157.01 20.68 157.76 21.33C159.714 22.8953 161.543 24.6105 163.23 26.46C164.06 27.37 164.9 28.28 165.68 29.23C166.46 30.18 167.45 31.01 168.31 31.95C168.74 32.43 169.45 31.95 169.31 31.36L169.34 31.18Z" fill="#363636"/>
<path d="M93.74 149.39C92.9 150.2 93.11 151.39 93.49 152.39C94.0869 153.844 95.1396 155.065 96.49 155.87C99.3015 157.625 102.437 158.798 105.71 159.32C111.37 160.32 117.35 159.57 122.99 158.82C128.63 158.07 134.23 157.21 139.83 156.26C140.83 156.1 141.73 155.91 142.69 155.76L144.08 155.55H144.4H144.21L145.01 155.45C147.435 155.148 149.876 154.985 152.32 154.96C153.71 154.96 155.09 155.02 156.48 155.12L157.48 155.21L157.99 155.27C157.74 155.27 157.52 155.19 157.9 155.27C158.55 155.38 159.2 155.49 159.85 155.65C160.5 155.81 161.07 155.91 161.68 156.06C161.97 156.13 162.24 156.23 162.53 156.32C162.59 156.32 162.93 156.48 162.59 156.32C162.25 156.16 162.82 156.43 162.84 156.44C163.29 156.68 163.78 156.89 164.21 157.15C164.477 157.341 164.758 157.511 165.05 157.66C165.3 157.77 166.63 157.96 165.98 157.86C166.442 157.978 166.933 157.913 167.348 157.678C167.764 157.443 168.073 157.057 168.21 156.6C168.39 155.942 168.369 155.246 168.15 154.6C168.036 154.323 167.889 154.061 167.71 153.82C167.71 153.82 167.12 153.02 167.4 153.41C167.68 153.8 167.03 152.9 166.95 152.82C166.171 152.013 165.266 151.337 164.27 150.82C161.925 149.585 159.345 148.862 156.7 148.7C151.87 148.14 146.82 148.79 142.04 149.56C137.44 150.3 132.93 151.5 128.38 152.48C122.825 153.736 117.176 154.532 111.49 154.86C108.565 155.07 105.626 154.942 102.73 154.48C100.895 154.157 99.1171 153.571 97.45 152.74C95.99 152 94.3 151.37 93.97 149.53C93.9627 149.498 93.9466 149.468 93.9236 149.444C93.9005 149.421 93.8714 149.404 93.8394 149.395C93.8073 149.387 93.7737 149.388 93.742 149.397C93.7104 149.407 93.682 149.425 93.66 149.45L93.74 149.39Z" fill="#363636"/>
<path d="M101.24 150.54C101.114 147.319 100.611 144.124 99.74 141.02C99.0299 137.798 98.1351 134.619 97.06 131.5C94.8613 125.254 91.7692 119.359 87.88 114C86.6889 112.506 85.3707 111.117 83.94 109.85C82.68 108.65 81.47 107.41 80.16 106.27C79.7683 105.914 79.2545 105.722 78.7252 105.735C78.196 105.747 77.6918 105.963 77.3175 106.337C76.9431 106.712 76.7273 107.216 76.7147 107.745C76.7021 108.275 76.8938 108.788 77.25 109.18C79.1531 111.378 80.8284 113.764 82.25 116.3C83.77 118.96 85.63 121.43 87.17 124.08C90.3753 129.592 93.2925 135.266 95.91 141.08C97.35 144.3 98.45 147.76 100.14 150.85C100.205 150.962 100.306 151.05 100.426 151.099C100.547 151.149 100.68 151.157 100.805 151.123C100.931 151.088 101.041 151.014 101.12 150.91C101.199 150.807 101.241 150.68 101.24 150.55V150.54Z" fill="#363636"/>
<path d="M165.29 147.47C165.903 145.648 166.345 143.774 166.61 141.87C166.96 139.97 167.33 138.08 167.75 136.19C168.56 132.53 169.35 128.85 170.41 125.25C171.271 122.129 172.399 119.088 173.78 116.16C175.26 113.16 176.53 109.95 178.25 107.09C179.06 105.74 177.25 104.63 176.25 105.51C174.811 106.598 173.473 107.813 172.25 109.14C171.096 110.483 170.131 111.976 169.38 113.58C167.79 116.829 166.572 120.247 165.75 123.77C164.87 127.694 164.397 131.699 164.34 135.72C164.34 137.67 164.34 139.61 164.34 141.56C164.299 143.542 164.466 145.523 164.84 147.47C164.9 147.7 165.2 147.66 165.27 147.47H165.29Z" fill="#363636"/>
<path d="M103.32 108.36C103.189 108.933 103.249 109.534 103.49 110.07C103.69 110.91 103.95 111.74 104.18 112.57C104.62 114.11 105.04 115.66 105.43 117.21C106.23 120.39 106.99 123.6 107.62 126.81C108.867 133.226 109.755 139.706 110.28 146.22C110.311 146.613 110.49 146.981 110.78 147.248C111.07 147.516 111.45 147.665 111.845 147.665C112.24 147.665 112.62 147.516 112.91 147.248C113.2 146.981 113.379 146.613 113.41 146.22C113.602 142.815 113.509 139.4 113.13 136.01C112.717 132.577 112.086 129.173 111.24 125.82C110.411 122.57 109.345 119.384 108.05 116.29C107.39 114.71 106.68 113.16 105.91 111.64C105.55 110.93 105.19 110.22 104.76 109.55C104.33 108.88 104.2 108.47 103.58 108.23C103.528 108.217 103.474 108.225 103.427 108.251C103.381 108.277 103.346 108.319 103.33 108.37L103.32 108.36Z" fill="#363636"/>
<path d="M149.3 142.77C150.3 141.7 150.23 140.1 150.45 138.77C150.69 137.24 151.04 135.77 151.35 134.22C151.98 131.14 152.5 128.06 153.01 124.96C153.48 122.11 153.93 119.25 154.58 116.44C154.9 115.04 155.29 113.66 155.69 112.28C156.09 110.9 156.42 109.28 156.95 107.79C157.68 105.74 154.56 104.52 153.49 106.33C152.625 107.707 151.866 109.148 151.22 110.64C150.705 111.983 150.271 113.355 149.92 114.75C149.153 117.737 148.555 120.765 148.13 123.82C147.587 127.069 147.253 130.349 147.13 133.64C147.117 135.279 147.187 136.918 147.34 138.55C147.46 139.96 147.44 141.77 148.57 142.79C148.675 142.891 148.814 142.948 148.96 142.948C149.106 142.948 149.246 142.891 149.35 142.79L149.3 142.77Z" fill="#363636"/>
<path d="M126.39 113.92C125.94 118.92 126.51 123.92 126.73 128.92C126.95 133.92 127.24 138.92 127.41 143.92C127.49 146.14 130.9 146.15 130.87 143.92C130.8 138.84 130.69 133.76 130.32 128.69C129.95 123.62 129.76 118.53 128.39 113.69C128.354 113.425 128.214 113.185 128.002 113.022C127.789 112.86 127.52 112.789 127.255 112.825C126.99 112.861 126.75 113 126.587 113.213C126.425 113.426 126.354 113.695 126.39 113.96V113.92Z" fill="#363636"/>
<path d="M58.8 183.94C57.4092 182.782 55.7755 181.951 54.02 181.51C52.0376 180.996 49.9978 180.738 47.95 180.74C45.6621 180.737 43.3757 180.854 41.1 181.09C38.6467 181.337 36.3367 181.53 34.17 181.67C32.316 181.811 30.454 181.811 28.6 181.67C27.0533 181.53 26.14 181.037 25.86 180.19C25.58 179.343 26.1033 178.057 27.43 176.33C29.6428 173.76 32.1048 171.415 34.78 169.33C36.5476 167.995 38.4017 166.779 40.33 165.69C42.1752 164.64 44.0782 163.695 46.03 162.86C47.7481 162.119 49.524 161.52 51.34 161.07C52.792 160.691 54.2897 160.516 55.79 160.55C56.3658 160.534 56.9341 160.683 57.427 160.981C57.92 161.279 58.3168 161.713 58.57 162.23C59.0984 163.42 59.3284 164.721 59.24 166.02C59.165 167.581 58.8963 169.126 58.44 170.62C58.0198 172.084 57.4675 173.506 56.79 174.87C58.7642 174.261 60.6352 173.357 62.34 172.19C64.2931 170.899 66.1033 169.404 67.74 167.73C69.3259 166.133 70.7126 164.35 71.87 162.42C72.8765 160.848 73.4461 159.035 73.52 157.17C73.533 156.02 73.2869 154.882 72.8 153.84C72.278 152.763 71.4856 151.839 70.5 151.16C69.2302 150.313 67.8174 149.703 66.33 149.36C64.2659 148.875 62.1502 148.643 60.03 148.67C56.8677 148.716 53.7222 149.139 50.66 149.93C46.9047 150.844 43.2268 152.051 39.66 153.54C35.8342 155.131 32.128 156.996 28.57 159.12C25.0824 161.173 21.8152 163.579 18.82 166.3C16.1106 168.741 13.7755 171.568 11.89 174.69C10.1835 177.455 9.25747 180.631 9.21001 183.88C9.09518 185.945 9.63783 187.993 10.76 189.73C11.8075 191.206 13.2297 192.376 14.88 193.12C16.7261 193.942 18.6966 194.449 20.71 194.62C22.9461 194.84 25.1941 194.917 27.44 194.85C29.7333 194.783 31.9767 194.64 34.17 194.42C36.3633 194.2 38.31 194.03 40.01 193.91C41.3871 193.795 42.7706 193.779 44.15 193.86C45.2033 193.947 45.73 194.297 45.73 194.91C45.6274 196.213 45.1518 197.46 44.36 198.5C43.3493 199.962 42.175 201.304 40.86 202.5C39.3682 203.885 37.7551 205.133 36.04 206.23C34.3907 207.314 32.6052 208.175 30.73 208.79C28.2153 209.556 25.6157 210.01 22.99 210.14C20.3109 210.283 17.6243 210.099 14.99 209.59C12.3501 209.081 9.79051 208.22 7.38001 207.03C4.91353 205.815 2.66083 204.207 0.710007 202.27C0.180159 205.463 0.399248 208.736 1.35001 211.83C2.15475 214.276 3.58138 216.471 5.49001 218.2C7.41418 219.878 9.6952 221.095 12.16 221.76C14.8403 222.509 17.6073 222.902 20.39 222.93C23.3479 222.968 26.3022 222.713 29.21 222.17C32.1146 221.643 34.966 220.857 37.73 219.82C40.5416 218.757 43.225 217.381 45.73 215.72C48.4227 213.974 50.9351 211.964 53.23 209.72C55.4543 207.559 57.4146 205.142 59.07 202.52C60.6036 200.152 61.6443 197.499 62.13 194.72C62.4822 192.557 62.3072 190.341 61.62 188.26C61.0621 186.604 60.0916 185.117 58.8 183.94Z" fill="#363636"/>
<path d="M221.33 192C221.127 191.097 220.609 190.296 219.87 189.74C219.512 189.48 219.105 189.295 218.674 189.195C218.243 189.095 217.796 189.083 217.36 189.16C216.792 189.305 216.265 189.579 215.819 189.961C215.373 190.342 215.021 190.821 214.79 191.36C213.563 193.32 212.353 195.077 211.16 196.63C209.967 198.183 208.89 199.517 207.93 200.63C207.162 201.548 206.348 202.426 205.49 203.26C205.084 203.683 204.631 204.059 204.14 204.38C203.35 205.025 202.406 205.453 201.4 205.62C201.132 205.659 200.858 205.621 200.611 205.512C200.363 205.402 200.151 205.225 200 205C199.685 204.382 199.54 203.692 199.58 203C199.59 202.087 199.653 201.175 199.77 200.27C199.984 198.528 200.431 196.823 201.1 195.2C201.8 193.44 202.547 191.737 203.34 190.09C204.133 188.443 204.907 186.943 205.66 185.59C206.42 184.257 206.977 183.203 207.33 182.43C207.91 182.43 208.59 182.43 209.33 182.53C209.924 182.602 210.525 182.575 211.11 182.45C211.795 182.352 212.44 182.073 212.98 181.64C213.652 181.151 214.254 180.572 214.77 179.92C215.27 179.305 215.696 178.634 216.04 177.92C216.333 177.36 216.472 176.732 216.44 176.1C216.413 175.859 216.311 175.632 216.147 175.452C215.984 175.273 215.768 175.149 215.53 175.1C214.211 174.859 212.87 174.765 211.53 174.82C212.583 172.687 213.49 170.9 214.25 169.46C215.01 168.02 215.623 166.823 216.09 165.87C216.557 164.917 216.907 164.197 217.14 163.71L217.67 162.63C217.616 162.25 217.465 161.891 217.232 161.586C216.999 161.282 216.692 161.042 216.34 160.89C215.36 160.372 214.308 160.002 213.22 159.79C211.876 159.511 210.511 159.344 209.14 159.29C207.736 159.224 206.329 159.261 204.93 159.4C203.757 159.507 202.596 159.718 201.46 160.03C200.736 160.159 200.069 160.508 199.55 161.03C200.235 161.278 200.845 161.698 201.32 162.25C201.753 162.77 201.703 163.753 201.17 165.2C200.503 166.76 199.787 168.317 199.02 169.87C198.253 171.423 197.45 173.04 196.61 174.72H193.83C193.363 174.72 192.767 175.12 192.04 175.92C191.323 176.712 190.721 177.601 190.25 178.56C189.824 179.366 189.569 180.251 189.5 181.16C189.5 181.94 189.947 182.333 190.84 182.34H193C192.333 183.613 191.587 185.1 190.76 186.8C189.933 188.5 189.113 190.317 188.3 192.25L188.08 192.81C187.36 193.92 186.6 195.08 185.76 196.32C184.68 197.907 183.557 199.433 182.39 200.9C181.223 202.367 180.067 203.733 178.92 205C177.984 206.078 176.88 206.996 175.65 207.72C174.671 208.377 173.599 208.882 172.47 209.22C171.545 209.524 170.558 209.593 169.6 209.42C168.775 209.235 168.056 208.732 167.6 208.02C167.001 206.961 166.707 205.756 166.75 204.54C169.321 203.457 171.747 202.056 173.97 200.37C176.357 198.608 178.55 196.597 180.51 194.37C182.323 192.334 183.906 190.104 185.23 187.72C186.346 185.857 186.969 183.74 187.04 181.57C187.042 180.679 186.832 179.801 186.429 179.006C186.026 178.212 185.44 177.524 184.72 177C183.193 175.807 180.697 175.2 177.23 175.18C175.135 175.197 173.066 175.642 171.15 176.49C168.974 177.428 166.928 178.642 165.06 180.1C163.032 181.671 161.187 183.466 159.56 185.45C157.871 187.492 156.402 189.708 155.18 192.06C154.528 193.357 153.956 194.692 153.47 196.06C153.34 196.42 153.25 196.78 153.14 197.14C152.27 198.38 151.38 199.6 150.45 200.77C149.283 202.237 148.133 203.59 147 204.83C146.064 205.908 144.96 206.826 143.73 207.55C142.751 208.207 141.679 208.712 140.55 209.05C139.625 209.353 138.638 209.422 137.68 209.25C136.855 209.065 136.136 208.562 135.68 207.85C135.081 206.791 134.787 205.586 134.83 204.37C137.401 203.287 139.827 201.886 142.05 200.2C144.437 198.438 146.629 196.427 148.59 194.2C150.404 192.161 151.987 189.927 153.31 187.54C154.426 185.677 155.049 183.56 155.12 181.39C155.122 180.499 154.912 179.621 154.509 178.826C154.106 178.032 153.52 177.344 152.8 176.82C151.273 175.627 148.777 175.02 145.31 175C143.215 175.016 141.146 175.462 139.23 176.31C137.054 177.248 135.007 178.461 133.14 179.92C131.112 181.491 129.267 183.286 127.64 185.27C125.951 187.312 124.482 189.528 123.26 191.88C122.608 193.177 122.036 194.513 121.55 195.88C121.47 196.11 121.41 196.36 121.33 196.59V196.66C120.717 197.467 120.177 198.133 119.71 198.66C119.449 199.022 119.107 199.316 118.71 199.52C118.404 199.32 118.189 199.007 118.11 198.65C117.993 198.224 117.909 197.789 117.86 197.35C117.807 196.919 117.78 196.485 117.78 196.05C117.78 195.64 117.78 195.35 117.78 195.18L121.15 189.56C121.71 188.679 122.195 187.753 122.6 186.79C123.155 185.497 123.597 184.159 123.92 182.79C124.266 181.432 124.361 180.022 124.2 178.63C124.065 177.395 123.54 176.235 122.7 175.32C121.631 174.313 120.229 173.733 118.76 173.69C117.666 173.606 116.566 173.754 115.533 174.122C114.499 174.491 113.554 175.073 112.76 175.83C111.193 177.414 109.985 179.317 109.22 181.41C108.353 183.7 107.772 186.088 107.49 188.52C107.183 191.033 106.997 193.273 106.93 195.24C106.363 196.531 105.719 197.787 105 199C104.42 199.953 103.923 200.747 103.51 201.38C102.757 202.592 101.879 203.722 100.89 204.75C100.636 205.072 100.321 205.341 99.9617 205.54C99.6029 205.739 99.2079 205.865 98.8 205.91C98.22 205.91 97.8466 205.43 97.68 204.47C97.5474 202.986 97.6726 201.491 98.05 200.05C98.892 196.202 100.149 192.457 101.8 188.88C103.467 185.247 105.293 181.613 107.28 177.98C107.4 177.52 107.187 177.1 106.64 176.72C105.962 176.287 105.214 175.976 104.43 175.8C103.404 175.546 102.361 175.366 101.31 175.26C100.188 175.139 99.0587 175.089 97.93 175.11C96.9487 175.117 95.9718 175.241 95.02 175.48C94.3634 175.599 93.7652 175.933 93.32 176.43C92.8797 177.154 92.4856 177.906 92.14 178.68C91.5266 179.953 90.8233 181.527 90.03 183.4C89.2366 185.273 88.4733 187.323 87.74 189.55C86.9969 191.653 86.4152 193.809 86 196C85.3333 197.333 84.7333 198.517 84.2 199.55C83.6928 200.511 83.1215 201.436 82.49 202.32C80.9166 204.853 79.6366 206.06 78.65 205.94C77.6633 205.82 77.47 204.317 78.07 201.43C78.3633 200.097 78.7633 198.567 79.27 196.84C79.7766 195.113 80.35 193.38 80.99 191.64C81.3433 190.6 81.7533 189.473 82.22 188.26C82.6866 187.047 83.1866 185.833 83.72 184.62C84.2466 183.407 84.7866 182.21 85.34 181.03C85.8933 179.85 86.4066 178.767 86.88 177.78C87.3466 177.113 86.99 176.477 85.81 175.87C84.4435 175.232 82.98 174.826 81.48 174.67C79.8195 174.468 78.1405 174.468 76.48 174.67C74.86 174.863 73.8167 175.363 73.35 176.17C73.1265 176.812 72.8489 177.435 72.52 178.03C71.96 179.157 71.2733 180.613 70.46 182.4C69.6467 184.187 68.78 186.237 67.86 188.55C66.9533 190.857 66.1167 193.223 65.35 195.65C64.6035 198.012 63.9826 200.412 63.49 202.84C63.0345 204.948 62.8463 207.105 62.93 209.26C63.0833 212.44 64.0833 214.743 65.93 216.17C67.7954 217.594 70.0831 218.354 72.43 218.33C74.9901 218.317 77.5138 217.722 79.81 216.59C82.1504 215.525 84.1558 213.841 85.61 211.72C86.0987 213.264 86.9529 214.667 88.1 215.81C88.9307 216.594 89.9195 217.19 91 217.56C91.8682 217.843 92.7769 217.982 93.69 217.97C94.53 217.97 95.1533 217.97 95.56 217.97C97.4386 217.987 99.2916 217.533 100.95 216.65C102.627 215.768 104.18 214.668 105.57 213.38C106.923 212.136 108.152 210.762 109.24 209.28C110.293 207.84 111.14 206.573 111.78 205.48C113.335 206.704 115.262 207.357 117.24 207.33C118.368 207.34 119.486 207.112 120.52 206.66C120.687 207.458 120.921 208.241 121.22 209C121.673 210.445 122.469 211.759 123.54 212.83C124.632 213.932 125.887 214.859 127.26 215.58C128.659 216.316 130.144 216.876 131.68 217.25C133.125 217.621 134.609 217.819 136.1 217.84C139.012 217.892 141.891 217.223 144.48 215.89C147.074 214.518 149.436 212.746 151.48 210.64C152.013 210.1 152.54 209.537 153.06 208.95L153.14 209.17C153.593 210.615 154.389 211.929 155.46 213C156.551 214.103 157.806 215.03 159.18 215.75C160.579 216.486 162.064 217.047 163.6 217.42C165.039 217.785 166.516 217.979 168 218C170.912 218.052 173.791 217.382 176.38 216.05C178.975 214.678 181.337 212.907 183.38 210.8C183.75 210.42 184.12 210.02 184.49 209.62C184.686 211.233 185.3 212.767 186.27 214.07C188.023 216.31 190.867 217.44 194.8 217.46C195.235 217.464 195.669 217.437 196.1 217.38L197.32 217.21C200.193 216.884 202.941 215.853 205.32 214.21C207.617 212.599 209.697 210.7 211.51 208.56C213.357 206.393 215.029 204.082 216.51 201.65C217.997 199.203 219.413 196.97 220.76 194.95C221.077 194.536 221.294 194.054 221.393 193.542C221.492 193.03 221.47 192.502 221.33 192ZM134.41 195.25C134.703 194.73 135.14 193.993 135.72 193.04C136.3 192.087 136.943 191.087 137.65 190.04C138.317 188.973 139.06 187.907 139.88 186.84C140.578 185.875 141.351 184.965 142.19 184.12C143.35 182.967 144.147 182.493 144.58 182.7C145.013 182.907 145.11 183.47 144.87 184.39C144.519 185.577 144.015 186.713 143.37 187.77C142.609 189.099 141.636 190.294 140.49 191.31C139.471 192.339 138.363 193.276 137.18 194.11C136.133 194.83 135.203 195.417 134.39 195.87L134.41 195.25ZM166.34 195.43C166.633 194.91 167.07 194.173 167.65 193.22C168.23 192.267 168.873 191.267 169.58 190.22C170.28 189.153 171.023 188.087 171.81 187.02C172.509 186.055 173.281 185.146 174.12 184.3C175.28 183.153 176.077 182.68 176.51 182.88C176.943 183.08 177.04 183.643 176.8 184.57C176.449 185.757 175.945 186.893 175.3 187.95C174.539 189.279 173.566 190.474 172.42 191.49C171.401 192.519 170.293 193.456 169.11 194.29C168.063 195.01 167.133 195.597 166.32 196.05L166.34 195.43Z" fill="#363636"/>
<path d="M242.87 37.13C226.87 17.91 199.32 11.39 167.87 16.42C245.21 20.42 253.2 93.26 254 99.9C259.47 75.51 256.24 53.18 242.87 37.13Z" fill="#DCAD95"/>
<path d="M187.81 54C187.81 54 201.55 77.06 184.93 90.47C184.93 90.47 197.57 87.14 198.45 75.95C199.49 62.88 187.81 54 187.81 54Z" fill="white"/>
<g opacity="0.3">
<g style="mix-blend-mode:multiply" opacity="0.3">
<path d="M40.9 202.52C39.4083 203.905 37.7951 205.153 36.08 206.25C34.4308 207.334 32.6453 208.195 30.7701 208.81C28.2553 209.576 25.6557 210.03 23.03 210.16C20.3509 210.303 17.6643 210.119 15.03 209.61C12.3901 209.101 9.83055 208.24 7.42004 207.05C4.95356 205.835 2.70087 204.227 0.750046 202.29C0.220198 205.483 0.439287 208.756 1.39005 211.85C2.19479 214.296 3.62141 216.491 5.53005 218.22C7.45421 219.898 9.73523 221.115 12.2 221.78C14.8803 222.529 17.6473 222.922 20.43 222.95C23.3879 222.988 26.3422 222.733 29.25 222.19C32.1546 221.663 35.0061 220.877 37.7701 219.84C40.5816 218.777 43.2651 217.401 45.7701 215.74C48.4628 213.994 50.9751 211.984 53.2701 209.74C55.4943 207.579 57.4546 205.162 59.11 202.54C59.46 201.99 59.76 201.43 60.05 200.88C54.43 200.25 49.11 199.53 44.11 198.76C43.1741 200.122 42.0982 201.382 40.9 202.52Z" fill="#363636"/>
</g>
<g style="mix-blend-mode:multiply" opacity="0.3">
<path d="M62.93 209.21C63.0834 212.39 64.0834 214.693 65.93 216.12C67.7954 217.544 70.0832 218.304 72.43 218.28C74.9902 218.267 77.5138 217.672 79.81 216.54C82.1505 215.475 84.1559 213.791 85.61 211.67C86.0988 213.214 86.953 214.617 88.1 215.76C88.9307 216.544 89.9196 217.14 91 217.51C91.8682 217.793 92.777 217.932 93.69 217.92C94.53 217.92 95.1534 217.92 95.56 217.92C97.4387 217.937 99.2916 217.483 100.95 216.6C102.627 215.718 104.181 214.618 105.57 213.33C106.923 212.085 108.153 210.712 109.24 209.23C110.293 207.79 111.14 206.523 111.78 205.43C113.335 206.654 115.262 207.307 117.24 207.28C118.368 207.29 119.486 207.062 120.52 206.61C120.687 207.408 120.921 208.191 121.22 208.95C121.673 210.395 122.469 211.709 123.54 212.78C124.632 213.882 125.887 214.809 127.26 215.53C128.659 216.266 130.144 216.826 131.68 217.2C133.125 217.571 134.609 217.769 136.1 217.79C139.012 217.842 141.891 217.172 144.48 215.84C147.074 214.468 149.436 212.696 151.48 210.59C152.013 210.05 152.54 209.487 153.06 208.9L153.14 209.12C153.593 210.565 154.389 211.879 155.46 212.95C156.551 214.053 157.806 214.98 159.18 215.7C160.579 216.436 162.064 216.997 163.6 217.37C165.037 217.751 166.514 217.963 168 218C170.912 218.052 173.791 217.382 176.38 216.05C178.975 214.678 181.337 212.907 183.38 210.8C183.75 210.42 184.12 210.02 184.49 209.62C184.686 211.233 185.3 212.767 186.27 214.07C188.023 216.31 190.867 217.44 194.8 217.46C195.235 217.464 195.669 217.437 196.1 217.38L197.32 217.21C200.193 216.884 202.941 215.853 205.32 214.21C207.617 212.599 209.697 210.7 211.51 208.56C213.357 206.393 215.029 204.082 216.51 201.65C217.997 199.203 219.413 196.97 220.76 194.95C221.066 194.548 221.276 194.081 221.377 193.586C221.477 193.091 221.465 192.58 221.34 192.09C221.137 191.187 220.619 190.386 219.88 189.83C219.21 189.346 218.38 189.135 217.56 189.24L216.68 189.46C215.865 189.921 215.21 190.618 214.8 191.46C213.573 193.42 212.363 195.177 211.17 196.73C209.977 198.283 208.9 199.617 207.94 200.73C207.172 201.648 206.358 202.526 205.5 203.36C205.094 203.783 204.641 204.159 204.15 204.48C203.36 205.125 202.416 205.553 201.41 205.72C201.13 205.751 200.848 205.699 200.597 205.571C200.347 205.443 200.139 205.245 200 205C199.685 204.382 199.54 203.692 199.58 203C199.59 202.087 199.653 201.175 199.77 200.27C199.984 198.528 200.431 196.823 201.1 195.2C201.41 194.43 201.73 193.68 202.1 192.93C196.633 194.137 191.24 195.227 185.92 196.2L185.83 196.33C184.75 197.917 183.627 199.443 182.46 200.91C181.293 202.377 180.113 203.74 178.92 205C177.985 206.078 176.88 206.996 175.65 207.72C174.671 208.377 173.599 208.882 172.47 209.22C171.545 209.524 170.558 209.593 169.6 209.42C168.775 209.235 168.056 208.732 167.6 208.02C167.001 206.961 166.707 205.756 166.75 204.54C169.321 203.457 171.747 202.056 173.97 200.37C175.1 199.53 176.18 198.64 177.2 197.72C167.867 199.24 158.803 200.433 150.01 201.3C149.01 202.55 148.01 203.74 147.01 204.81C146.075 205.888 144.97 206.806 143.74 207.53C142.761 208.187 141.689 208.692 140.56 209.03C139.635 209.333 138.649 209.402 137.69 209.23C136.865 209.045 136.146 208.542 135.69 207.83C135.091 206.771 134.797 205.566 134.84 204.35C136.254 203.762 137.622 203.066 138.93 202.27C125.93 203.27 113.53 203.59 101.93 203.46C101.593 203.887 101.233 204.294 100.85 204.68C100.596 205.002 100.281 205.271 99.9218 205.47C99.5629 205.669 99.168 205.795 98.76 205.84C98.18 205.84 97.8067 205.36 97.64 204.4C97.5906 204.069 97.5705 203.734 97.58 203.4C92.3067 203.287 87.2 203.087 82.26 202.8C80.82 205.01 79.64 206.07 78.72 205.96C77.8 205.85 77.61 204.71 77.94 202.53C73.0867 202.197 68.42 201.797 63.94 201.33C63.83 201.83 63.69 202.33 63.59 202.84C63.1051 204.927 62.8834 207.067 62.93 209.21Z" fill="#363636"/>
</g>
</g>
<path opacity="0.8" d="M175.68 15.41C173.113 15.67 170.517 16.0033 167.89 16.41C223.77 19.31 243.44 58.13 250.36 81.95L250.78 82.28C245.08 16.5 195.2 13.87 175.68 15.41Z" fill="#EEDCD5"/>
<path opacity="0.8" d="M22.66 207.66C18.8097 203.776 15.4512 199.433 12.66 194.73C11.1064 193.831 9.76294 192.611 8.72003 191.15C7.29744 188.986 6.59725 186.427 6.72003 183.84C6.72928 183.148 6.77602 182.457 6.86003 181.77C5.12053 176.391 4.06885 170.813 3.73004 165.17C3.73004 165.17 3.17003 186.45 12.73 206.43C13.6565 206.72 14.5979 206.96 15.55 207.15C17.8921 207.596 20.2783 207.767 22.66 207.66Z" fill="#EEDCD5"/>
<path opacity="0.8" d="M123.44 235.34C93.66 242.64 62.25 239.15 40.91 221.28C40.16 221.61 39.42 221.91 38.69 222.18C35.7926 223.264 32.804 224.088 29.76 224.64C28.51 224.87 27.26 225.04 26.02 225.17C28.5928 227.623 31.4033 229.814 34.41 231.71C64.21 250.5 101.16 245.58 123.44 235.34Z" fill="#EEDCD5"/>
<path d="M56.6801 151.71C58.6651 151.11 60.7398 150.863 62.8101 150.98C65.0166 151 67.1636 151.698 68.9601 152.98C69.8742 153.768 70.5294 154.814 70.8401 155.98C71.1158 157.089 71.0951 158.251 70.7801 159.35C70.1736 161.369 69.013 163.178 67.4301 164.57C68.4393 162.887 69.1181 161.027 69.4301 159.09C69.5887 158.249 69.5163 157.381 69.2204 156.578C68.9246 155.775 68.4164 155.067 67.7501 154.53C66.1783 153.578 64.4296 152.956 62.6101 152.7C60.6901 152.28 58.7101 152.05 56.6801 151.71Z" fill="white"/>
<path d="M117 175.57C115.338 177.145 113.88 178.922 112.66 180.86C112.1 181.86 111.54 182.78 111.06 183.86C110.78 184.36 110.58 184.86 110.31 185.43C110.04 186 109.84 186.52 109.52 187.08C109.413 186.466 109.359 185.843 109.36 185.22C109.382 184.595 109.455 183.973 109.58 183.36C109.836 182.118 110.307 180.931 110.97 179.85C111.646 178.765 112.517 177.816 113.54 177.05C114.539 176.254 115.734 175.742 117 175.57Z" fill="white"/>
<path d="M151.54 177.81C152.293 178.629 152.809 179.639 153.03 180.73C153.29 181.829 153.317 182.97 153.11 184.08C152.901 185.181 152.48 186.23 151.87 187.17C151.576 187.632 151.241 188.067 150.87 188.47C150.485 188.856 150.071 189.21 149.63 189.53C149.81 189 150.06 188.53 150.26 188.06C150.46 187.59 150.68 187.12 150.83 186.64C151.177 185.717 151.448 184.767 151.64 183.8C151.991 181.815 151.957 179.782 151.54 177.81Z" fill="white"/>
<path d="M183.79 178.06C184.543 178.879 185.058 179.889 185.28 180.98C185.54 182.079 185.567 183.22 185.36 184.33C185.151 185.431 184.729 186.48 184.12 187.42C183.826 187.882 183.491 188.317 183.12 188.72C182.735 189.105 182.321 189.46 181.88 189.78C182.06 189.25 182.31 188.78 182.51 188.31C182.71 187.84 182.93 187.37 183.08 186.89C183.426 185.967 183.697 185.017 183.89 184.05C184.241 182.065 184.207 180.032 183.79 178.06Z" fill="white"/>
<path d="M214 161.44C214.357 161.645 214.658 161.934 214.876 162.283C215.094 162.632 215.222 163.03 215.25 163.44C215.342 164.217 215.267 165.004 215.03 165.75C214.81 166.468 214.472 167.144 214.03 167.75C213.58 168.364 213.008 168.878 212.35 169.26C212.348 168.525 212.435 167.793 212.61 167.08C212.76 166.41 212.94 165.79 213.14 165.18L213.7 163.4C213.925 162.772 214.027 162.107 214 161.44Z" fill="white"/>
<path d="M92.44 184C92.1195 183.735 91.8702 183.394 91.7148 183.008C91.5594 182.622 91.5027 182.203 91.55 181.79C91.5913 181.008 91.7993 180.245 92.16 179.55C92.5058 178.89 92.9586 178.292 93.5 177.78C94.0504 177.252 94.7041 176.843 95.42 176.58C95.2957 177.303 95.0841 178.008 94.79 178.68C94.52 179.31 94.25 179.9 93.94 180.46L93.08 182.12C92.7481 182.7 92.5308 183.338 92.44 184Z" fill="white"/>
<path d="M72.93 184C72.6095 183.735 72.3602 183.394 72.2048 183.008C72.0494 182.622 71.9927 182.203 72.04 181.79C72.0813 181.008 72.2893 180.245 72.65 179.55C73.0006 178.896 73.4568 178.305 74 177.8C74.5504 177.272 75.2041 176.863 75.92 176.6C75.7957 177.323 75.5841 178.028 75.29 178.7C75.02 179.33 74.75 179.92 74.44 180.48L73.58 182.14C73.2468 182.713 73.0261 183.344 72.93 184Z" fill="white"/>
<path d="M55.35 184.8C56.5581 184.968 57.6782 185.527 58.54 186.39C59.4362 187.263 60.0938 188.351 60.45 189.55C60.7746 190.736 60.8326 191.979 60.62 193.19C60.5025 193.772 60.3386 194.344 60.13 194.9C59.8835 195.437 59.5924 195.952 59.26 196.44C59.1942 195.869 59.1609 195.295 59.16 194.72C59.11 194.17 59.11 193.63 59.05 193.1C58.963 192.087 58.7891 191.083 58.53 190.1C57.9037 188.107 56.8139 186.291 55.35 184.8Z" fill="white"/>
</svg>
